%TF.GenerationSoftware,KiCad,Pcbnew,8.0.6*%
%TF.CreationDate,2024-12-14T14:17:37+01:00*%
%TF.ProjectId,satellite_board_6_keys,73617465-6c6c-4697-9465-5f626f617264,0*%
%TF.SameCoordinates,Original*%
%TF.FileFunction,Copper,L2,Bot*%
%TF.FilePolarity,Positive*%
%FSLAX46Y46*%
G04 Gerber Fmt 4.6, Leading zero omitted, Abs format (unit mm)*
G04 Created by KiCad (PCBNEW 8.0.6) date 2024-12-14 14:17:37*
%MOMM*%
%LPD*%
G01*
G04 APERTURE LIST*
%TA.AperFunction,ComponentPad*%
%ADD10R,1.700000X1.700000*%
%TD*%
%TA.AperFunction,ComponentPad*%
%ADD11O,1.700000X1.700000*%
%TD*%
%TA.AperFunction,ComponentPad*%
%ADD12R,2.000000X2.000000*%
%TD*%
%TA.AperFunction,ComponentPad*%
%ADD13C,2.000000*%
%TD*%
%TA.AperFunction,ComponentPad*%
%ADD14R,1.295400X1.295400*%
%TD*%
%TA.AperFunction,ComponentPad*%
%ADD15C,1.295400*%
%TD*%
%TA.AperFunction,ComponentPad*%
%ADD16C,1.100000*%
%TD*%
%TA.AperFunction,ComponentPad*%
%ADD17R,1.130000X1.130000*%
%TD*%
%TA.AperFunction,ComponentPad*%
%ADD18C,1.130000*%
%TD*%
%TA.AperFunction,ViaPad*%
%ADD19C,0.600000*%
%TD*%
%TA.AperFunction,Conductor*%
%ADD20C,0.200000*%
%TD*%
G04 APERTURE END LIST*
D10*
%TO.P,J5,1,Pin_1*%
%TO.N,Net-(J4-Pin_1)*%
X90805000Y-101600000D03*
D11*
%TO.P,J5,2,Pin_2*%
%TO.N,Net-(J4-Pin_2)*%
X93345000Y-101600000D03*
%TO.P,J5,3,Pin_3*%
%TO.N,Net-(J4-Pin_3)*%
X90805000Y-104140000D03*
%TO.P,J5,4,Pin_4*%
%TO.N,Net-(J4-Pin_4)*%
X93345000Y-104140000D03*
%TO.P,J5,5,Pin_5*%
%TO.N,Net-(J4-Pin_5)*%
X90805000Y-106680000D03*
%TO.P,J5,6,Pin_6*%
%TO.N,Net-(J4-Pin_6)*%
X93345000Y-106680000D03*
%TO.P,J5,7,Pin_7*%
%TO.N,Net-(J4-Pin_7)*%
X90805000Y-109220000D03*
%TO.P,J5,8,Pin_8*%
%TO.N,Net-(J4-Pin_8)*%
X93345000Y-109220000D03*
%TO.P,J5,9,Pin_9*%
%TO.N,Net-(J4-Pin_9)*%
X90805000Y-111760000D03*
%TO.P,J5,10,Pin_10*%
%TO.N,Net-(J4-Pin_10)*%
X93345000Y-111760000D03*
%TO.P,J5,11,Pin_11*%
%TO.N,Net-(J4-Pin_11)*%
X90805000Y-114300000D03*
%TO.P,J5,12,Pin_12*%
%TO.N,Net-(J4-Pin_12)*%
X93345000Y-114300000D03*
%TO.P,J5,13,Pin_13*%
%TO.N,Net-(J4-Pin_13)*%
X90805000Y-116840000D03*
%TO.P,J5,14,Pin_14*%
%TO.N,Net-(J4-Pin_14)*%
X93345000Y-116840000D03*
%TO.P,J5,15,Pin_15*%
%TO.N,Net-(J4-Pin_15)*%
X90805000Y-119380000D03*
%TO.P,J5,16,Pin_16*%
%TO.N,Net-(J4-Pin_16)*%
X93345000Y-119380000D03*
%TO.P,J5,17,Pin_17*%
%TO.N,Net-(J4-Pin_17)*%
X90805000Y-121920000D03*
%TO.P,J5,18,Pin_18*%
%TO.N,Net-(J4-Pin_18)*%
X93345000Y-121920000D03*
%TO.P,J5,19,Pin_19*%
%TO.N,Net-(J4-Pin_19)*%
X90805000Y-124460000D03*
%TO.P,J5,20,Pin_20*%
%TO.N,VCC*%
X93345000Y-124460000D03*
%TO.P,J5,21,Pin_21*%
%TO.N,GND*%
X90805000Y-127000000D03*
%TO.P,J5,22,Pin_22*%
%TO.N,VCC*%
X93345000Y-127000000D03*
%TO.P,J5,23,Pin_23*%
%TO.N,GND*%
X90805000Y-129540000D03*
%TO.P,J5,24,Pin_24*%
%TO.N,VCC*%
X93345000Y-129540000D03*
%TD*%
D12*
%TO.P,J2,1,Pin_1*%
%TO.N,Net-(J2-Pin_1)*%
X91150000Y-41915000D03*
D13*
%TO.P,J2,2,Pin_2*%
%TO.N,Net-(J2-Pin_2)*%
X93690000Y-41915000D03*
%TO.P,J2,3,Pin_3*%
%TO.N,Net-(J2-Pin_3)*%
X96230000Y-41915000D03*
%TO.P,J2,4,Pin_4*%
%TO.N,Net-(J2-Pin_4)*%
X98770000Y-41915000D03*
%TO.P,J2,5,Pin_5*%
%TO.N,Net-(J2-Pin_5)*%
X101310000Y-41915000D03*
%TO.P,J2,6,Pin_6*%
%TO.N,Net-(J2-Pin_6)*%
X103850000Y-41915000D03*
%TD*%
D10*
%TO.P,JP2,1,Pin_1*%
%TO.N,Net-(J1-Pin_2)*%
X143002000Y-56642000D03*
D11*
%TO.P,JP2,2,Pin_2*%
%TO.N,Net-(JP2-Pin_2)*%
X145542000Y-56642000D03*
%TO.P,JP2,3,Pin_3*%
%TO.N,GND*%
X143002000Y-59182000D03*
%TO.P,JP2,4,Pin_4*%
%TO.N,Net-(JP2-Pin_2)*%
X145542000Y-59182000D03*
%TD*%
D10*
%TO.P,JP4,1,Pin_1*%
%TO.N,Net-(JP4-Pin_1)*%
X116840000Y-102870000D03*
D11*
%TO.P,JP4,2,Pin_2*%
%TO.N,Net-(J4-Pin_6)*%
X119380000Y-102870000D03*
%TO.P,JP4,3,Pin_3*%
%TO.N,Net-(JP4-Pin_1)*%
X116840000Y-105410000D03*
%TO.P,JP4,4,Pin_4*%
%TO.N,Net-(J4-Pin_8)*%
X119380000Y-105410000D03*
%TO.P,JP4,5,Pin_5*%
%TO.N,Net-(JP4-Pin_1)*%
X116840000Y-107950000D03*
%TO.P,JP4,6,Pin_6*%
%TO.N,Net-(J4-Pin_10)*%
X119380000Y-107950000D03*
%TO.P,JP4,7,Pin_7*%
%TO.N,Net-(JP4-Pin_1)*%
X116840000Y-110490000D03*
%TO.P,JP4,8,Pin_8*%
%TO.N,Net-(J4-Pin_12)*%
X119380000Y-110490000D03*
%TO.P,JP4,9,Pin_9*%
%TO.N,Net-(JP4-Pin_1)*%
X116840000Y-113030000D03*
%TO.P,JP4,10,Pin_10*%
%TO.N,Net-(J4-Pin_14)*%
X119380000Y-113030000D03*
%TO.P,JP4,11,Pin_11*%
%TO.N,Net-(JP4-Pin_1)*%
X116840000Y-115570000D03*
%TO.P,JP4,12,Pin_12*%
%TO.N,Net-(J4-Pin_16)*%
X119380000Y-115570000D03*
%TO.P,JP4,13,Pin_13*%
%TO.N,Net-(JP4-Pin_1)*%
X116840000Y-118110000D03*
%TO.P,JP4,14,Pin_14*%
%TO.N,Net-(J4-Pin_18)*%
X119380000Y-118110000D03*
%TD*%
D10*
%TO.P,JP3,1,Pin_1*%
%TO.N,Net-(JP3-Pin_1)*%
X116840000Y-95250000D03*
D11*
%TO.P,JP3,2,Pin_2*%
%TO.N,Net-(J4-Pin_1)*%
X119380000Y-95250000D03*
%TO.P,JP3,3,Pin_3*%
%TO.N,Net-(JP3-Pin_1)*%
X116840000Y-97790000D03*
%TO.P,JP3,4,Pin_4*%
%TO.N,Net-(J4-Pin_2)*%
X119380000Y-97790000D03*
%TD*%
D10*
%TO.P,JP1,1,Pin_1*%
%TO.N,Net-(J1-Pin_1)*%
X143002000Y-65278000D03*
D11*
%TO.P,JP1,2,Pin_2*%
%TO.N,Net-(JP1-Pin_2)*%
X145542000Y-65278000D03*
%TO.P,JP1,3,Pin_3*%
%TO.N,GND*%
X143002000Y-67818000D03*
%TO.P,JP1,4,Pin_4*%
%TO.N,Net-(JP1-Pin_2)*%
X145542000Y-67818000D03*
%TD*%
D14*
%TO.P,R1,1*%
%TO.N,Net-(J3-Pin_5)*%
X99060000Y-48895000D03*
D15*
%TO.P,R1,2*%
%TO.N,Net-(J3-Pin_3)*%
X99060000Y-51435000D03*
%TO.P,R1,3*%
%TO.N,Net-(J3-Pin_1)*%
X99060000Y-53975000D03*
%TO.P,R1,4*%
%TO.N,Net-(J2-Pin_5)*%
X99060000Y-56515000D03*
%TO.P,R1,5*%
%TO.N,Net-(J2-Pin_3)*%
X99060000Y-59055000D03*
%TO.P,R1,6*%
%TO.N,Net-(J2-Pin_1)*%
X99060000Y-61595000D03*
%TO.P,R1,7*%
%TO.N,Net-(J1-Pin_1)*%
X99060000Y-64135000D03*
%TO.P,R1,8*%
%TO.N,unconnected-(R1-Pad8)*%
X99060000Y-66675000D03*
%TO.P,R1,9*%
%TO.N,GND*%
X107188000Y-66675000D03*
%TO.P,R1,10*%
X107188000Y-64135000D03*
%TO.P,R1,11*%
X107188000Y-61595000D03*
%TO.P,R1,12*%
X107188000Y-59055000D03*
%TO.P,R1,13*%
X107188000Y-56515000D03*
%TO.P,R1,14*%
X107188000Y-53975000D03*
%TO.P,R1,15*%
X107188000Y-51435000D03*
%TO.P,R1,16*%
X107188000Y-48895000D03*
%TD*%
D16*
%TO.P,C1,1*%
%TO.N,VCC*%
X143002000Y-76835000D03*
%TO.P,C1,2*%
%TO.N,GND*%
X143002000Y-81835000D03*
%TD*%
D12*
%TO.P,J3,1,Pin_1*%
%TO.N,Net-(J3-Pin_1)*%
X133195000Y-41910000D03*
D13*
%TO.P,J3,2,Pin_2*%
%TO.N,Net-(J3-Pin_2)*%
X135735000Y-41910000D03*
%TO.P,J3,3,Pin_3*%
%TO.N,Net-(J3-Pin_3)*%
X138275000Y-41910000D03*
%TO.P,J3,4,Pin_4*%
%TO.N,Net-(J3-Pin_4)*%
X140815000Y-41910000D03*
%TO.P,J3,5,Pin_5*%
%TO.N,Net-(J3-Pin_5)*%
X143355000Y-41910000D03*
%TO.P,J3,6,Pin_6*%
%TO.N,Net-(J3-Pin_6)*%
X145895000Y-41910000D03*
%TD*%
D14*
%TO.P,R2,1*%
%TO.N,Net-(J3-Pin_6)*%
X129032000Y-48895000D03*
D15*
%TO.P,R2,2*%
%TO.N,Net-(J3-Pin_4)*%
X129032000Y-51435000D03*
%TO.P,R2,3*%
%TO.N,Net-(J3-Pin_2)*%
X129032000Y-53975000D03*
%TO.P,R2,4*%
%TO.N,Net-(J2-Pin_6)*%
X129032000Y-56515000D03*
%TO.P,R2,5*%
%TO.N,Net-(J2-Pin_4)*%
X129032000Y-59055000D03*
%TO.P,R2,6*%
%TO.N,Net-(J2-Pin_2)*%
X129032000Y-61595000D03*
%TO.P,R2,7*%
%TO.N,Net-(J1-Pin_2)*%
X129032000Y-64135000D03*
%TO.P,R2,8*%
%TO.N,unconnected-(R2-Pad8)*%
X129032000Y-66675000D03*
%TO.P,R2,9*%
%TO.N,VCC*%
X137160000Y-66675000D03*
%TO.P,R2,10*%
X137160000Y-64135000D03*
%TO.P,R2,11*%
X137160000Y-61595000D03*
%TO.P,R2,12*%
X137160000Y-59055000D03*
%TO.P,R2,13*%
X137160000Y-56515000D03*
%TO.P,R2,14*%
X137160000Y-53975000D03*
%TO.P,R2,15*%
X137160000Y-51435000D03*
%TO.P,R2,16*%
X137160000Y-48895000D03*
%TD*%
D10*
%TO.P,J1,1,Pin_1*%
%TO.N,Net-(J1-Pin_1)*%
X116885000Y-41840000D03*
D11*
%TO.P,J1,2,Pin_2*%
%TO.N,Net-(J1-Pin_2)*%
X119425000Y-41840000D03*
%TD*%
D16*
%TO.P,C2,1*%
%TO.N,VCC*%
X114046000Y-77256000D03*
%TO.P,C2,2*%
%TO.N,GND*%
X114046000Y-82256000D03*
%TD*%
D17*
%TO.P,U1,1,I3*%
%TO.N,Net-(J3-Pin_2)*%
X99248000Y-76835000D03*
D18*
%TO.P,U1,2,I2*%
%TO.N,Net-(J2-Pin_6)*%
X99248000Y-79375000D03*
%TO.P,U1,3,I1*%
%TO.N,Net-(J2-Pin_4)*%
X99248000Y-81915000D03*
%TO.P,U1,4,I0*%
%TO.N,Net-(J2-Pin_2)*%
X99248000Y-84455000D03*
%TO.P,U1,5,Y*%
%TO.N,Net-(JP5-Pin_1)*%
X99248000Y-86995000D03*
%TO.P,U1,6,~{Y}*%
%TO.N,unconnected-(U1-~{Y}-Pad6)*%
X99248000Y-89535000D03*
%TO.P,U1,7,~{OE}*%
%TO.N,Net-(JP3-Pin_1)*%
X99248000Y-92075000D03*
%TO.P,U1,8,GND*%
%TO.N,GND*%
X99248000Y-94615000D03*
%TO.P,U1,9,S2*%
%TO.N,Net-(J4-Pin_5)*%
X107188000Y-94615000D03*
%TO.P,U1,10,S1*%
%TO.N,Net-(J4-Pin_4)*%
X107188000Y-92075000D03*
%TO.P,U1,11,S0*%
%TO.N,Net-(J4-Pin_3)*%
X107188000Y-89535000D03*
%TO.P,U1,12,I7*%
%TO.N,GND*%
X107188000Y-86995000D03*
%TO.P,U1,13,I6*%
%TO.N,Net-(JP2-Pin_2)*%
X107188000Y-84455000D03*
%TO.P,U1,14,I5*%
%TO.N,Net-(J3-Pin_6)*%
X107188000Y-81915000D03*
%TO.P,U1,15,I4*%
%TO.N,Net-(J3-Pin_4)*%
X107188000Y-79375000D03*
%TO.P,U1,16,VCC*%
%TO.N,VCC*%
X107188000Y-76835000D03*
%TD*%
D10*
%TO.P,J4,1,Pin_1*%
%TO.N,Net-(J4-Pin_1)*%
X143510000Y-101600000D03*
D11*
%TO.P,J4,2,Pin_2*%
%TO.N,Net-(J4-Pin_2)*%
X146050000Y-101600000D03*
%TO.P,J4,3,Pin_3*%
%TO.N,Net-(J4-Pin_3)*%
X143510000Y-104140000D03*
%TO.P,J4,4,Pin_4*%
%TO.N,Net-(J4-Pin_4)*%
X146050000Y-104140000D03*
%TO.P,J4,5,Pin_5*%
%TO.N,Net-(J4-Pin_5)*%
X143510000Y-106680000D03*
%TO.P,J4,6,Pin_6*%
%TO.N,Net-(J4-Pin_6)*%
X146050000Y-106680000D03*
%TO.P,J4,7,Pin_7*%
%TO.N,Net-(J4-Pin_7)*%
X143510000Y-109220000D03*
%TO.P,J4,8,Pin_8*%
%TO.N,Net-(J4-Pin_8)*%
X146050000Y-109220000D03*
%TO.P,J4,9,Pin_9*%
%TO.N,Net-(J4-Pin_9)*%
X143510000Y-111760000D03*
%TO.P,J4,10,Pin_10*%
%TO.N,Net-(J4-Pin_10)*%
X146050000Y-111760000D03*
%TO.P,J4,11,Pin_11*%
%TO.N,Net-(J4-Pin_11)*%
X143510000Y-114300000D03*
%TO.P,J4,12,Pin_12*%
%TO.N,Net-(J4-Pin_12)*%
X146050000Y-114300000D03*
%TO.P,J4,13,Pin_13*%
%TO.N,Net-(J4-Pin_13)*%
X143510000Y-116840000D03*
%TO.P,J4,14,Pin_14*%
%TO.N,Net-(J4-Pin_14)*%
X146050000Y-116840000D03*
%TO.P,J4,15,Pin_15*%
%TO.N,Net-(J4-Pin_15)*%
X143510000Y-119380000D03*
%TO.P,J4,16,Pin_16*%
%TO.N,Net-(J4-Pin_16)*%
X146050000Y-119380000D03*
%TO.P,J4,17,Pin_17*%
%TO.N,Net-(J4-Pin_17)*%
X143510000Y-121920000D03*
%TO.P,J4,18,Pin_18*%
%TO.N,Net-(J4-Pin_18)*%
X146050000Y-121920000D03*
%TO.P,J4,19,Pin_19*%
%TO.N,Net-(J4-Pin_19)*%
X143510000Y-124460000D03*
%TO.P,J4,20,Pin_20*%
%TO.N,VCC*%
X146050000Y-124460000D03*
%TO.P,J4,21,Pin_21*%
%TO.N,GND*%
X143510000Y-127000000D03*
%TO.P,J4,22,Pin_22*%
%TO.N,VCC*%
X146050000Y-127000000D03*
%TO.P,J4,23,Pin_23*%
%TO.N,GND*%
X143510000Y-129540000D03*
%TO.P,J4,24,Pin_24*%
%TO.N,VCC*%
X146050000Y-129540000D03*
%TD*%
D10*
%TO.P,JP5,1,Pin_1*%
%TO.N,Net-(JP5-Pin_1)*%
X116840000Y-123190000D03*
D11*
%TO.P,JP5,2,Pin_2*%
%TO.N,Net-(J4-Pin_7)*%
X119380000Y-123190000D03*
%TO.P,JP5,3,Pin_3*%
%TO.N,Net-(JP5-Pin_1)*%
X116840000Y-125730000D03*
%TO.P,JP5,4,Pin_4*%
%TO.N,Net-(J4-Pin_9)*%
X119380000Y-125730000D03*
%TO.P,JP5,5,Pin_5*%
%TO.N,Net-(JP5-Pin_1)*%
X116840000Y-128270000D03*
%TO.P,JP5,6,Pin_6*%
%TO.N,Net-(J4-Pin_11)*%
X119380000Y-128270000D03*
%TO.P,JP5,7,Pin_7*%
%TO.N,Net-(JP5-Pin_1)*%
X116840000Y-130810000D03*
%TO.P,JP5,8,Pin_8*%
%TO.N,Net-(J4-Pin_13)*%
X119380000Y-130810000D03*
%TO.P,JP5,9,Pin_9*%
%TO.N,Net-(JP5-Pin_1)*%
X116840000Y-133350000D03*
%TO.P,JP5,10,Pin_10*%
%TO.N,Net-(J4-Pin_15)*%
X119380000Y-133350000D03*
%TO.P,JP5,11,Pin_11*%
%TO.N,Net-(JP5-Pin_1)*%
X116840000Y-135890000D03*
%TO.P,JP5,12,Pin_12*%
%TO.N,Net-(J4-Pin_17)*%
X119380000Y-135890000D03*
%TO.P,JP5,13,Pin_13*%
%TO.N,Net-(JP5-Pin_1)*%
X116840000Y-138430000D03*
%TO.P,JP5,14,Pin_14*%
%TO.N,Net-(J4-Pin_19)*%
X119380000Y-138430000D03*
%TD*%
D17*
%TO.P,U2,1,I3*%
%TO.N,Net-(J3-Pin_1)*%
X128905000Y-76835000D03*
D18*
%TO.P,U2,2,I2*%
%TO.N,Net-(J2-Pin_5)*%
X128905000Y-79375000D03*
%TO.P,U2,3,I1*%
%TO.N,Net-(J2-Pin_3)*%
X128905000Y-81915000D03*
%TO.P,U2,4,I0*%
%TO.N,Net-(J2-Pin_1)*%
X128905000Y-84455000D03*
%TO.P,U2,5,Y*%
%TO.N,Net-(JP4-Pin_1)*%
X128905000Y-86995000D03*
%TO.P,U2,6,~{Y}*%
%TO.N,unconnected-(U2-~{Y}-Pad6)*%
X128905000Y-89535000D03*
%TO.P,U2,7,~{OE}*%
%TO.N,Net-(JP3-Pin_1)*%
X128905000Y-92075000D03*
%TO.P,U2,8,GND*%
%TO.N,GND*%
X128905000Y-94615000D03*
%TO.P,U2,9,S2*%
%TO.N,Net-(J4-Pin_5)*%
X136845000Y-94615000D03*
%TO.P,U2,10,S1*%
%TO.N,Net-(J4-Pin_4)*%
X136845000Y-92075000D03*
%TO.P,U2,11,S0*%
%TO.N,Net-(J4-Pin_3)*%
X136845000Y-89535000D03*
%TO.P,U2,12,I7*%
%TO.N,GND*%
X136845000Y-86995000D03*
%TO.P,U2,13,I6*%
%TO.N,Net-(JP1-Pin_2)*%
X136845000Y-84455000D03*
%TO.P,U2,14,I5*%
%TO.N,Net-(J3-Pin_5)*%
X136845000Y-81915000D03*
%TO.P,U2,15,I4*%
%TO.N,Net-(J3-Pin_3)*%
X136845000Y-79375000D03*
%TO.P,U2,16,VCC*%
%TO.N,VCC*%
X136845000Y-76835000D03*
%TD*%
D19*
%TO.N,GND*%
X122936000Y-92618000D03*
X122936000Y-94488000D03*
X122936000Y-88138000D03*
X109220000Y-78740000D03*
%TO.N,VCC*%
X111760000Y-73660000D03*
%TO.N,Net-(J1-Pin_2)*%
X130718000Y-45720000D03*
%TO.N,Net-(J1-Pin_1)*%
X106426000Y-43434000D03*
%TO.N,Net-(J2-Pin_6)*%
X121285000Y-56515000D03*
X119634000Y-54864000D03*
X107442000Y-41910000D03*
%TO.N,Net-(J2-Pin_3)*%
X110236000Y-60706000D03*
X124206000Y-77216000D03*
X113284000Y-61214000D03*
%TO.N,Net-(J2-Pin_4)*%
X107188000Y-44704000D03*
X118364000Y-55880000D03*
X121300250Y-59070250D03*
%TO.N,Net-(J2-Pin_1)*%
X121666000Y-77216000D03*
X107950000Y-74930000D03*
X111760000Y-72644000D03*
%TO.N,Net-(J2-Pin_2)*%
X120650000Y-60960000D03*
X117094000Y-57404000D03*
X114046000Y-52832000D03*
%TO.N,Net-(J2-Pin_5)*%
X109982000Y-58166000D03*
X125476000Y-75946000D03*
X115062000Y-59436000D03*
%TO.N,Net-(J3-Pin_1)*%
X132334000Y-72390000D03*
X134112000Y-45720000D03*
%TO.N,Net-(J3-Pin_6)*%
X127000000Y-43688000D03*
%TO.N,Net-(J3-Pin_4)*%
X131318000Y-40132000D03*
X125476000Y-65024000D03*
%TO.N,Net-(J3-Pin_2)*%
X134366000Y-53848000D03*
%TO.N,Net-(J3-Pin_3)*%
X111252000Y-39624000D03*
%TO.N,Net-(J4-Pin_12)*%
X113538000Y-114300000D03*
%TO.N,Net-(J4-Pin_1)*%
X125222000Y-101600000D03*
X106934000Y-98552000D03*
%TO.N,Net-(J4-Pin_10)*%
X113538000Y-111760000D03*
%TO.N,Net-(J4-Pin_2)*%
X111760000Y-103124000D03*
%TO.N,Net-(J4-Pin_14)*%
X113538000Y-115824000D03*
%TO.N,Net-(J4-Pin_3)*%
X138684000Y-95758000D03*
%TO.N,Net-(J4-Pin_16)*%
X113538000Y-116840000D03*
%TO.N,Net-(JP3-Pin_1)*%
X106934000Y-97536000D03*
%TO.N,Net-(JP5-Pin_1)*%
X101854000Y-120142000D03*
%TD*%
D20*
%TO.N,GND*%
X110530000Y-78740000D02*
X109220000Y-78740000D01*
X88900000Y-126746000D02*
X88900000Y-94488000D01*
X140716000Y-67818000D02*
X140716000Y-61468000D01*
X90805000Y-127000000D02*
X89154000Y-127000000D01*
X109307000Y-86995000D02*
X114046000Y-82256000D01*
X123063000Y-94615000D02*
X122936000Y-94488000D01*
X141224000Y-127000000D02*
X141224000Y-132080000D01*
X88900000Y-94488000D02*
X99121000Y-94488000D01*
X107188000Y-66675000D02*
X107188000Y-64135000D01*
X99121000Y-94488000D02*
X99248000Y-94615000D01*
X143002000Y-67818000D02*
X140716000Y-67818000D01*
X141224000Y-132080000D02*
X148844000Y-132080000D01*
X107188000Y-59055000D02*
X107188000Y-61595000D01*
X137842000Y-86995000D02*
X143002000Y-81835000D01*
X136845000Y-86995000D02*
X137842000Y-86995000D01*
X89154000Y-127000000D02*
X88900000Y-126746000D01*
X114046000Y-82256000D02*
X110530000Y-78740000D01*
X148844000Y-98994000D02*
X136845000Y-86995000D01*
X128905000Y-94615000D02*
X123063000Y-94615000D01*
X128905000Y-94615000D02*
X136525000Y-86995000D01*
X148844000Y-132080000D02*
X148844000Y-98994000D01*
X107188000Y-51435000D02*
X107188000Y-48895000D01*
X107188000Y-56515000D02*
X107188000Y-59055000D01*
X107188000Y-53975000D02*
X107188000Y-51435000D01*
X122936000Y-92618000D02*
X122936000Y-88138000D01*
X107188000Y-56515000D02*
X107188000Y-53975000D01*
X107188000Y-86995000D02*
X109307000Y-86995000D01*
X107188000Y-64135000D02*
X107188000Y-61595000D01*
X136525000Y-86995000D02*
X136845000Y-86995000D01*
X143510000Y-129540000D02*
X143510000Y-127000000D01*
X90805000Y-129540000D02*
X90805000Y-127000000D01*
X140716000Y-61468000D02*
X143002000Y-59182000D01*
X143510000Y-127000000D02*
X141224000Y-127000000D01*
%TO.N,VCC*%
X93345000Y-129540000D02*
X93345000Y-127000000D01*
X137160000Y-66675000D02*
X137160000Y-64135000D01*
X114046000Y-77256000D02*
X114046000Y-74422000D01*
X134432000Y-74422000D02*
X136845000Y-76835000D01*
X146050000Y-129540000D02*
X146050000Y-127000000D01*
X137160000Y-53975000D02*
X137160000Y-51435000D01*
X137160000Y-51435000D02*
X137160000Y-48895000D01*
X107188000Y-76835000D02*
X108585000Y-76835000D01*
X134432000Y-74422000D02*
X134432000Y-69403000D01*
X137160000Y-61595000D02*
X137160000Y-59055000D01*
X93345000Y-127000000D02*
X93345000Y-124460000D01*
X137160000Y-59055000D02*
X137160000Y-56515000D01*
X134432000Y-69403000D02*
X137160000Y-66675000D01*
X108585000Y-76835000D02*
X111760000Y-73660000D01*
X137160000Y-64135000D02*
X137160000Y-61595000D01*
X146050000Y-127000000D02*
X146050000Y-124460000D01*
X114046000Y-74422000D02*
X134432000Y-74422000D01*
X137160000Y-56515000D02*
X137160000Y-53975000D01*
%TO.N,Net-(J1-Pin_2)*%
X126676000Y-41840000D02*
X119425000Y-41840000D01*
X130556000Y-45720000D02*
X126676000Y-41840000D01*
X130718000Y-45720000D02*
X130556000Y-45720000D01*
%TO.N,Net-(J1-Pin_1)*%
X100965000Y-64135000D02*
X103124000Y-61976000D01*
X103124000Y-46736000D02*
X106426000Y-43434000D01*
X103124000Y-61976000D02*
X103124000Y-46736000D01*
X99060000Y-64135000D02*
X100965000Y-64135000D01*
%TO.N,Net-(J2-Pin_6)*%
X119634000Y-54864000D02*
X107442000Y-42672000D01*
X99248000Y-79375000D02*
X99248000Y-78552000D01*
X107442000Y-42672000D02*
X107442000Y-41910000D01*
X99248000Y-78552000D02*
X121285000Y-56515000D01*
X121285000Y-56515000D02*
X129032000Y-56515000D01*
%TO.N,Net-(J2-Pin_3)*%
X112776000Y-60706000D02*
X110236000Y-60706000D01*
X96230000Y-56225000D02*
X99060000Y-59055000D01*
X128905000Y-81915000D02*
X129770000Y-82780000D01*
X113284000Y-61214000D02*
X112776000Y-60706000D01*
X96230000Y-41915000D02*
X96230000Y-56225000D01*
X129770000Y-82780000D02*
X124206000Y-77216000D01*
%TO.N,Net-(J2-Pin_4)*%
X99248000Y-81122500D02*
X121300250Y-59070250D01*
X121300250Y-59070250D02*
X121315500Y-59055000D01*
X121315500Y-59055000D02*
X129032000Y-59055000D01*
X118364000Y-55880000D02*
X107188000Y-44704000D01*
X99248000Y-81915000D02*
X99248000Y-81122500D01*
%TO.N,Net-(J2-Pin_1)*%
X91150000Y-41915000D02*
X88392000Y-44673000D01*
X110236000Y-72644000D02*
X107950000Y-74930000D01*
X88392000Y-44673000D02*
X88392000Y-50927000D01*
X128905000Y-84455000D02*
X121666000Y-77216000D01*
X88392000Y-50927000D02*
X99060000Y-61595000D01*
X111760000Y-72644000D02*
X110236000Y-72644000D01*
%TO.N,Net-(J2-Pin_2)*%
X114046000Y-54356000D02*
X117094000Y-57404000D01*
X120650000Y-60960000D02*
X118618000Y-62992000D01*
X99375000Y-84328000D02*
X101346000Y-84328000D01*
X105410000Y-80264000D02*
X105410000Y-76200000D01*
X127635000Y-62992000D02*
X129032000Y-61595000D01*
X101346000Y-84328000D02*
X105410000Y-80264000D01*
X99248000Y-84455000D02*
X99375000Y-84328000D01*
X118618000Y-62992000D02*
X127635000Y-62992000D01*
X114046000Y-52832000D02*
X114046000Y-54356000D01*
X105410000Y-76200000D02*
X118618000Y-62992000D01*
%TO.N,Net-(J2-Pin_5)*%
X113792000Y-58166000D02*
X109982000Y-58166000D01*
X128905000Y-79375000D02*
X125476000Y-75946000D01*
X97282000Y-54737000D02*
X97282000Y-45943000D01*
X97282000Y-45943000D02*
X101310000Y-41915000D01*
X115062000Y-59436000D02*
X113792000Y-58166000D01*
X99060000Y-56515000D02*
X97282000Y-54737000D01*
%TO.N,Net-(J3-Pin_1)*%
X132334000Y-72390000D02*
X133195000Y-71529000D01*
X133195000Y-71529000D02*
X133195000Y-41910000D01*
X133195000Y-42771000D02*
X133195000Y-41910000D01*
X134112000Y-43688000D02*
X133195000Y-42771000D01*
X134112000Y-45720000D02*
X134112000Y-43688000D01*
%TO.N,Net-(J3-Pin_5)*%
X139700000Y-45565000D02*
X148491000Y-45565000D01*
X109664500Y-38608000D02*
X99377500Y-48895000D01*
X139700000Y-79060000D02*
X139700000Y-45565000D01*
X136845000Y-81915000D02*
X139700000Y-79060000D01*
X148844000Y-38608000D02*
X109664500Y-38608000D01*
X148844000Y-45212000D02*
X148844000Y-38608000D01*
X99377500Y-48895000D02*
X99060000Y-48895000D01*
X139700000Y-45565000D02*
X143355000Y-41910000D01*
X148491000Y-45565000D02*
X148844000Y-45212000D01*
%TO.N,Net-(J3-Pin_6)*%
X129032000Y-45720000D02*
X127000000Y-43688000D01*
X129032000Y-48895000D02*
X129032000Y-45720000D01*
%TO.N,Net-(J3-Pin_4)*%
X131318000Y-49149000D02*
X131318000Y-40132000D01*
X107188000Y-79375000D02*
X121539000Y-65024000D01*
X129032000Y-51435000D02*
X131318000Y-49149000D01*
X121539000Y-65024000D02*
X125476000Y-65024000D01*
%TO.N,Net-(J3-Pin_2)*%
X134874000Y-42771000D02*
X135735000Y-41910000D01*
X134874000Y-53340000D02*
X134874000Y-42771000D01*
X122108000Y-53975000D02*
X129032000Y-53975000D01*
X99248000Y-76835000D02*
X122108000Y-53975000D01*
X134366000Y-53848000D02*
X134874000Y-53340000D01*
%TO.N,Net-(J3-Pin_3)*%
X138684000Y-77536000D02*
X138684000Y-77470000D01*
X138275000Y-41910000D02*
X135897000Y-39532000D01*
X136845000Y-79375000D02*
X138684000Y-77536000D01*
X138275000Y-77061000D02*
X138275000Y-41910000D01*
X111344000Y-39532000D02*
X111252000Y-39624000D01*
X138684000Y-77470000D02*
X138275000Y-77061000D01*
X135897000Y-39532000D02*
X111344000Y-39532000D01*
%TO.N,Net-(J4-Pin_12)*%
X93345000Y-114300000D02*
X113538000Y-114300000D01*
%TO.N,Net-(J4-Pin_1)*%
X125222000Y-99060000D02*
X121412000Y-95250000D01*
X90805000Y-98552000D02*
X106934000Y-98552000D01*
X121412000Y-95250000D02*
X119380000Y-95250000D01*
X90805000Y-101600000D02*
X90805000Y-98552000D01*
X125222000Y-101600000D02*
X125222000Y-99060000D01*
%TO.N,Net-(J4-Pin_4)*%
X147828000Y-99568000D02*
X140335000Y-92075000D01*
X146050000Y-104140000D02*
X147828000Y-104140000D01*
X147828000Y-104140000D02*
X147828000Y-99568000D01*
X140335000Y-92075000D02*
X136845000Y-92075000D01*
%TO.N,Net-(J4-Pin_10)*%
X93345000Y-111760000D02*
X113538000Y-111760000D01*
%TO.N,Net-(J4-Pin_2)*%
X93345000Y-101600000D02*
X110236000Y-101600000D01*
X110236000Y-101600000D02*
X111760000Y-103124000D01*
X146050000Y-101600000D02*
X146050000Y-101346000D01*
%TO.N,Net-(J4-Pin_14)*%
X93345000Y-116840000D02*
X94195000Y-115990000D01*
X94195000Y-115990000D02*
X113372000Y-115990000D01*
X113372000Y-115990000D02*
X113538000Y-115824000D01*
%TO.N,Net-(J4-Pin_3)*%
X143510000Y-104140000D02*
X138684000Y-99314000D01*
X138684000Y-99314000D02*
X138684000Y-95758000D01*
%TO.N,Net-(J4-Pin_15)*%
X119380000Y-133350000D02*
X133350000Y-119380000D01*
X133350000Y-119380000D02*
X143510000Y-119380000D01*
%TO.N,Net-(J4-Pin_18)*%
X93345000Y-121920000D02*
X93853000Y-121412000D01*
X115824000Y-121412000D02*
X119126000Y-118110000D01*
X119126000Y-118110000D02*
X119380000Y-118110000D01*
X93853000Y-121412000D02*
X115824000Y-121412000D01*
%TO.N,Net-(J4-Pin_13)*%
X133350000Y-116840000D02*
X143510000Y-116840000D01*
X119380000Y-130810000D02*
X133350000Y-116840000D01*
%TO.N,Net-(J4-Pin_11)*%
X119380000Y-128270000D02*
X133350000Y-114300000D01*
X133350000Y-114300000D02*
X143510000Y-114300000D01*
%TO.N,Net-(J4-Pin_9)*%
X131960000Y-113150000D02*
X142120000Y-113150000D01*
X142120000Y-113150000D02*
X143510000Y-111760000D01*
X119380000Y-125730000D02*
X131960000Y-113150000D01*
%TO.N,Net-(J4-Pin_19)*%
X133350000Y-124460000D02*
X143510000Y-124460000D01*
X119380000Y-138430000D02*
X133350000Y-124460000D01*
%TO.N,Net-(J4-Pin_5)*%
X143510000Y-106680000D02*
X136845000Y-100015000D01*
X136845000Y-100015000D02*
X136845000Y-94615000D01*
%TO.N,Net-(J4-Pin_17)*%
X133350000Y-121920000D02*
X143510000Y-121920000D01*
X119380000Y-135890000D02*
X133350000Y-121920000D01*
%TO.N,Net-(J4-Pin_7)*%
X133350000Y-109220000D02*
X143510000Y-109220000D01*
X119380000Y-123190000D02*
X133350000Y-109220000D01*
%TO.N,Net-(J4-Pin_16)*%
X93345000Y-119380000D02*
X95765000Y-116960000D01*
X113418000Y-116960000D02*
X113538000Y-116840000D01*
X95765000Y-116960000D02*
X113418000Y-116960000D01*
%TO.N,Net-(JP2-Pin_2)*%
X145542000Y-59182000D02*
X145542000Y-56642000D01*
%TO.N,Net-(JP1-Pin_2)*%
X136845000Y-84455000D02*
X140716000Y-80584000D01*
X140716000Y-80584000D02*
X140716000Y-72644000D01*
X140716000Y-72644000D02*
X145542000Y-67818000D01*
X145542000Y-67818000D02*
X145542000Y-65278000D01*
%TO.N,Net-(JP3-Pin_1)*%
X116840000Y-95250000D02*
X116840000Y-93218000D01*
X116840000Y-93218000D02*
X127762000Y-93218000D01*
X127762000Y-93218000D02*
X128905000Y-92075000D01*
X116840000Y-97790000D02*
X116840000Y-95250000D01*
X99248000Y-92898000D02*
X99248000Y-92075000D01*
X103886000Y-97536000D02*
X99248000Y-92898000D01*
X106934000Y-97536000D02*
X103886000Y-97536000D01*
%TO.N,Net-(JP4-Pin_1)*%
X116840000Y-118110000D02*
X116840000Y-115570000D01*
X116840000Y-107950000D02*
X116840000Y-105410000D01*
X116840000Y-102870000D02*
X114300000Y-100330000D01*
X116840000Y-105410000D02*
X116840000Y-102870000D01*
X116840000Y-115570000D02*
X116840000Y-113030000D01*
X121031000Y-86995000D02*
X128905000Y-86995000D01*
X116840000Y-110490000D02*
X116840000Y-107950000D01*
X114300000Y-100330000D02*
X114300000Y-93726000D01*
X114300000Y-93726000D02*
X121031000Y-86995000D01*
X116840000Y-113030000D02*
X116840000Y-110490000D01*
%TO.N,Net-(JP5-Pin_1)*%
X104394000Y-96774000D02*
X104394000Y-92141000D01*
X101854000Y-120142000D02*
X111084529Y-120142000D01*
X116840000Y-133350000D02*
X116840000Y-130810000D01*
X116840000Y-125730000D02*
X116840000Y-123190000D01*
X111084529Y-120142000D02*
X114554000Y-116672529D01*
X114554000Y-103617705D02*
X107710295Y-96774000D01*
X116840000Y-128270000D02*
X116840000Y-125730000D01*
X116840000Y-130810000D02*
X116840000Y-128270000D01*
X104394000Y-92141000D02*
X99248000Y-86995000D01*
X107710295Y-96774000D02*
X104394000Y-96774000D01*
X116840000Y-135890000D02*
X116840000Y-133350000D01*
X116840000Y-138430000D02*
X116840000Y-135890000D01*
X114554000Y-116672529D02*
X114554000Y-103617705D01*
%TD*%
M02*
