M48
; DRILL file {KiCad 8.0.6} date 2024-12-14T14:17:27+0100
; FORMAT={-:-/ absolute / inch / decimal}
; #@! TF.CreationDate,2024-12-14T14:17:27+01:00
; #@! TF.GenerationSoftware,Kicad,Pcbnew,8.0.6
; #@! TF.FileFunction,MixedPlating,1,2
FMAT,2
INCH
; #@! TA.AperFunction,Plated,PTH,ViaDrill
T1C0.0118
; #@! TA.AperFunction,Plated,PTH,ComponentDrill
T2C0.0295
; #@! TA.AperFunction,Plated,PTH,ComponentDrill
T3C0.0307
; #@! TA.AperFunction,Plated,PTH,ComponentDrill
T4C0.0310
; #@! TA.AperFunction,Plated,PTH,ComponentDrill
T5C0.0394
; #@! TA.AperFunction,Plated,PTH,ComponentDrill
T6C0.0512
; #@! TA.AperFunction,NonPlated,NPTH,ComponentDrill
T7C0.1260
%
G90
G05
T1
X4.01Y-4.73
X4.19Y-1.71
X4.21Y-3.84
X4.21Y-3.88
X4.22Y-1.76
X4.23Y-1.65
X4.25Y-2.95
X4.3Y-3.1
X4.33Y-2.29
X4.34Y-2.39
X4.38Y-1.56
X4.4Y-2.86
X4.4Y-2.9
X4.4Y-4.06
X4.46Y-2.41
X4.47Y-4.4
X4.47Y-4.5
X4.47Y-4.56
X4.47Y-4.6
X4.49Y-2.08
X4.53Y-2.34
X4.61Y-2.26
X4.66Y-2.2
X4.71Y-2.16
X4.75Y-2.4
X4.775Y-2.225
X4.7756Y-2.3256
X4.79Y-3.04
X4.84Y-3.47
X4.84Y-3.6464
X4.84Y-3.72
X4.89Y-3.04
X4.93Y-4.0
X4.94Y-2.56
X4.94Y-2.99
X5.0Y-1.72
X5.1464Y-1.8
X5.17Y-1.58
X5.21Y-2.85
X5.28Y-1.8
X5.29Y-2.12
X5.46Y-3.77
T2
X4.49Y-3.0416
X4.49Y-3.2384
X5.63Y-3.025
X5.63Y-3.2219
T3
X3.9074Y-3.025
X3.9074Y-3.125
X3.9074Y-3.225
X3.9074Y-3.325
X3.9074Y-3.425
X3.9074Y-3.525
X3.9074Y-3.625
X3.9074Y-3.725
X4.22Y-3.025
X4.22Y-3.125
X4.22Y-3.225
X4.22Y-3.325
X4.22Y-3.425
X4.22Y-3.525
X4.22Y-3.625
X4.22Y-3.725
X5.075Y-3.025
X5.075Y-3.125
X5.075Y-3.225
X5.075Y-3.325
X5.075Y-3.425
X5.075Y-3.525
X5.075Y-3.625
X5.075Y-3.725
X5.3876Y-3.025
X5.3876Y-3.125
X5.3876Y-3.225
X5.3876Y-3.325
X5.3876Y-3.425
X5.3876Y-3.525
X5.3876Y-3.625
X5.3876Y-3.725
T4
X3.9Y-1.925
X3.9Y-2.025
X3.9Y-2.125
X3.9Y-2.225
X3.9Y-2.325
X3.9Y-2.425
X3.9Y-2.525
X3.9Y-2.625
X4.22Y-1.925
X4.22Y-2.025
X4.22Y-2.125
X4.22Y-2.225
X4.22Y-2.325
X4.22Y-2.425
X4.22Y-2.525
X4.22Y-2.625
X5.08Y-1.925
X5.08Y-2.025
X5.08Y-2.125
X5.08Y-2.225
X5.08Y-2.325
X5.08Y-2.425
X5.08Y-2.525
X5.08Y-2.625
X5.4Y-1.925
X5.4Y-2.025
X5.4Y-2.125
X5.4Y-2.225
X5.4Y-2.325
X5.4Y-2.425
X5.4Y-2.525
X5.4Y-2.625
T5
X3.575Y-4.0
X3.575Y-4.1
X3.575Y-4.2
X3.575Y-4.3
X3.575Y-4.4
X3.575Y-4.5
X3.575Y-4.6
X3.575Y-4.7
X3.575Y-4.8
X3.575Y-4.9
X3.575Y-5.0
X3.575Y-5.1
X3.675Y-4.0
X3.675Y-4.1
X3.675Y-4.2
X3.675Y-4.3
X3.675Y-4.4
X3.675Y-4.5
X3.675Y-4.6
X3.675Y-4.7
X3.675Y-4.8
X3.675Y-4.9
X3.675Y-5.0
X3.675Y-5.1
X4.6Y-3.75
X4.6Y-3.85
X4.6Y-4.05
X4.6Y-4.15
X4.6Y-4.25
X4.6Y-4.35
X4.6Y-4.45
X4.6Y-4.55
X4.6Y-4.65
X4.6Y-4.85
X4.6Y-4.95
X4.6Y-5.05
X4.6Y-5.15
X4.6Y-5.25
X4.6Y-5.35
X4.6Y-5.45
X4.6018Y-1.6472
X4.7Y-3.75
X4.7Y-3.85
X4.7Y-4.05
X4.7Y-4.15
X4.7Y-4.25
X4.7Y-4.35
X4.7Y-4.45
X4.7Y-4.55
X4.7Y-4.65
X4.7Y-4.85
X4.7Y-4.95
X4.7Y-5.05
X4.7Y-5.15
X4.7Y-5.25
X4.7Y-5.35
X4.7Y-5.45
X4.7018Y-1.6472
X5.63Y-2.23
X5.63Y-2.33
X5.63Y-2.57
X5.63Y-2.67
X5.65Y-4.0
X5.65Y-4.1
X5.65Y-4.2
X5.65Y-4.3
X5.65Y-4.4
X5.65Y-4.5
X5.65Y-4.6
X5.65Y-4.7
X5.65Y-4.8
X5.65Y-4.9
X5.65Y-5.0
X5.65Y-5.1
X5.73Y-2.23
X5.73Y-2.33
X5.73Y-2.57
X5.73Y-2.67
X5.75Y-4.0
X5.75Y-4.1
X5.75Y-4.2
X5.75Y-4.3
X5.75Y-4.4
X5.75Y-4.5
X5.75Y-4.6
X5.75Y-4.7
X5.75Y-4.8
X5.75Y-4.9
X5.75Y-5.0
X5.75Y-5.1
T6
X3.5886Y-1.6502
X3.6886Y-1.6502
X3.7886Y-1.6502
X3.8886Y-1.6502
X3.9886Y-1.6502
X4.0886Y-1.6502
X5.2439Y-1.65
X5.3439Y-1.65
X5.4439Y-1.65
X5.5439Y-1.65
X5.6439Y-1.65
X5.7439Y-1.65
T7
X3.625Y-1.9
X3.625Y-5.4
X5.7Y-1.9
X5.7Y-5.4
M30
