%TF.GenerationSoftware,KiCad,Pcbnew,8.0.6*%
%TF.CreationDate,2024-12-14T14:17:38+01:00*%
%TF.ProjectId,satellite_board_6_keys,73617465-6c6c-4697-9465-5f626f617264,0*%
%TF.SameCoordinates,Original*%
%TF.FileFunction,Legend,Top*%
%TF.FilePolarity,Positive*%
%FSLAX46Y46*%
G04 Gerber Fmt 4.6, Leading zero omitted, Abs format (unit mm)*
G04 Created by KiCad (PCBNEW 8.0.6) date 2024-12-14 14:17:38*
%MOMM*%
%LPD*%
G01*
G04 APERTURE LIST*
%ADD10C,0.150000*%
%ADD11C,0.120000*%
%ADD12C,0.152400*%
%ADD13C,0.127000*%
%ADD14C,0.200000*%
G04 APERTURE END LIST*
D10*
X91741666Y-98724819D02*
X91741666Y-99439104D01*
X91741666Y-99439104D02*
X91694047Y-99581961D01*
X91694047Y-99581961D02*
X91598809Y-99677200D01*
X91598809Y-99677200D02*
X91455952Y-99724819D01*
X91455952Y-99724819D02*
X91360714Y-99724819D01*
X92694047Y-98724819D02*
X92217857Y-98724819D01*
X92217857Y-98724819D02*
X92170238Y-99201009D01*
X92170238Y-99201009D02*
X92217857Y-99153390D01*
X92217857Y-99153390D02*
X92313095Y-99105771D01*
X92313095Y-99105771D02*
X92551190Y-99105771D01*
X92551190Y-99105771D02*
X92646428Y-99153390D01*
X92646428Y-99153390D02*
X92694047Y-99201009D01*
X92694047Y-99201009D02*
X92741666Y-99296247D01*
X92741666Y-99296247D02*
X92741666Y-99534342D01*
X92741666Y-99534342D02*
X92694047Y-99629580D01*
X92694047Y-99629580D02*
X92646428Y-99677200D01*
X92646428Y-99677200D02*
X92551190Y-99724819D01*
X92551190Y-99724819D02*
X92313095Y-99724819D01*
X92313095Y-99724819D02*
X92217857Y-99677200D01*
X92217857Y-99677200D02*
X92170238Y-99629580D01*
X88274819Y-42248333D02*
X88989104Y-42248333D01*
X88989104Y-42248333D02*
X89131961Y-42295952D01*
X89131961Y-42295952D02*
X89227200Y-42391190D01*
X89227200Y-42391190D02*
X89274819Y-42534047D01*
X89274819Y-42534047D02*
X89274819Y-42629285D01*
X88370057Y-41819761D02*
X88322438Y-41772142D01*
X88322438Y-41772142D02*
X88274819Y-41676904D01*
X88274819Y-41676904D02*
X88274819Y-41438809D01*
X88274819Y-41438809D02*
X88322438Y-41343571D01*
X88322438Y-41343571D02*
X88370057Y-41295952D01*
X88370057Y-41295952D02*
X88465295Y-41248333D01*
X88465295Y-41248333D02*
X88560533Y-41248333D01*
X88560533Y-41248333D02*
X88703390Y-41295952D01*
X88703390Y-41295952D02*
X89274819Y-41867380D01*
X89274819Y-41867380D02*
X89274819Y-41248333D01*
X143438666Y-53766819D02*
X143438666Y-54481104D01*
X143438666Y-54481104D02*
X143391047Y-54623961D01*
X143391047Y-54623961D02*
X143295809Y-54719200D01*
X143295809Y-54719200D02*
X143152952Y-54766819D01*
X143152952Y-54766819D02*
X143057714Y-54766819D01*
X143914857Y-54766819D02*
X143914857Y-53766819D01*
X143914857Y-53766819D02*
X144295809Y-53766819D01*
X144295809Y-53766819D02*
X144391047Y-53814438D01*
X144391047Y-53814438D02*
X144438666Y-53862057D01*
X144438666Y-53862057D02*
X144486285Y-53957295D01*
X144486285Y-53957295D02*
X144486285Y-54100152D01*
X144486285Y-54100152D02*
X144438666Y-54195390D01*
X144438666Y-54195390D02*
X144391047Y-54243009D01*
X144391047Y-54243009D02*
X144295809Y-54290628D01*
X144295809Y-54290628D02*
X143914857Y-54290628D01*
X144867238Y-53862057D02*
X144914857Y-53814438D01*
X144914857Y-53814438D02*
X145010095Y-53766819D01*
X145010095Y-53766819D02*
X145248190Y-53766819D01*
X145248190Y-53766819D02*
X145343428Y-53814438D01*
X145343428Y-53814438D02*
X145391047Y-53862057D01*
X145391047Y-53862057D02*
X145438666Y-53957295D01*
X145438666Y-53957295D02*
X145438666Y-54052533D01*
X145438666Y-54052533D02*
X145391047Y-54195390D01*
X145391047Y-54195390D02*
X144819619Y-54766819D01*
X144819619Y-54766819D02*
X145438666Y-54766819D01*
X117276666Y-99994819D02*
X117276666Y-100709104D01*
X117276666Y-100709104D02*
X117229047Y-100851961D01*
X117229047Y-100851961D02*
X117133809Y-100947200D01*
X117133809Y-100947200D02*
X116990952Y-100994819D01*
X116990952Y-100994819D02*
X116895714Y-100994819D01*
X117752857Y-100994819D02*
X117752857Y-99994819D01*
X117752857Y-99994819D02*
X118133809Y-99994819D01*
X118133809Y-99994819D02*
X118229047Y-100042438D01*
X118229047Y-100042438D02*
X118276666Y-100090057D01*
X118276666Y-100090057D02*
X118324285Y-100185295D01*
X118324285Y-100185295D02*
X118324285Y-100328152D01*
X118324285Y-100328152D02*
X118276666Y-100423390D01*
X118276666Y-100423390D02*
X118229047Y-100471009D01*
X118229047Y-100471009D02*
X118133809Y-100518628D01*
X118133809Y-100518628D02*
X117752857Y-100518628D01*
X119181428Y-100328152D02*
X119181428Y-100994819D01*
X118943333Y-99947200D02*
X118705238Y-100661485D01*
X118705238Y-100661485D02*
X119324285Y-100661485D01*
X117022666Y-91910819D02*
X117022666Y-92625104D01*
X117022666Y-92625104D02*
X116975047Y-92767961D01*
X116975047Y-92767961D02*
X116879809Y-92863200D01*
X116879809Y-92863200D02*
X116736952Y-92910819D01*
X116736952Y-92910819D02*
X116641714Y-92910819D01*
X117498857Y-92910819D02*
X117498857Y-91910819D01*
X117498857Y-91910819D02*
X117879809Y-91910819D01*
X117879809Y-91910819D02*
X117975047Y-91958438D01*
X117975047Y-91958438D02*
X118022666Y-92006057D01*
X118022666Y-92006057D02*
X118070285Y-92101295D01*
X118070285Y-92101295D02*
X118070285Y-92244152D01*
X118070285Y-92244152D02*
X118022666Y-92339390D01*
X118022666Y-92339390D02*
X117975047Y-92387009D01*
X117975047Y-92387009D02*
X117879809Y-92434628D01*
X117879809Y-92434628D02*
X117498857Y-92434628D01*
X118403619Y-91910819D02*
X119022666Y-91910819D01*
X119022666Y-91910819D02*
X118689333Y-92291771D01*
X118689333Y-92291771D02*
X118832190Y-92291771D01*
X118832190Y-92291771D02*
X118927428Y-92339390D01*
X118927428Y-92339390D02*
X118975047Y-92387009D01*
X118975047Y-92387009D02*
X119022666Y-92482247D01*
X119022666Y-92482247D02*
X119022666Y-92720342D01*
X119022666Y-92720342D02*
X118975047Y-92815580D01*
X118975047Y-92815580D02*
X118927428Y-92863200D01*
X118927428Y-92863200D02*
X118832190Y-92910819D01*
X118832190Y-92910819D02*
X118546476Y-92910819D01*
X118546476Y-92910819D02*
X118451238Y-92863200D01*
X118451238Y-92863200D02*
X118403619Y-92815580D01*
X143184666Y-62446819D02*
X143184666Y-63161104D01*
X143184666Y-63161104D02*
X143137047Y-63303961D01*
X143137047Y-63303961D02*
X143041809Y-63399200D01*
X143041809Y-63399200D02*
X142898952Y-63446819D01*
X142898952Y-63446819D02*
X142803714Y-63446819D01*
X143660857Y-63446819D02*
X143660857Y-62446819D01*
X143660857Y-62446819D02*
X144041809Y-62446819D01*
X144041809Y-62446819D02*
X144137047Y-62494438D01*
X144137047Y-62494438D02*
X144184666Y-62542057D01*
X144184666Y-62542057D02*
X144232285Y-62637295D01*
X144232285Y-62637295D02*
X144232285Y-62780152D01*
X144232285Y-62780152D02*
X144184666Y-62875390D01*
X144184666Y-62875390D02*
X144137047Y-62923009D01*
X144137047Y-62923009D02*
X144041809Y-62970628D01*
X144041809Y-62970628D02*
X143660857Y-62970628D01*
X145184666Y-63446819D02*
X144613238Y-63446819D01*
X144898952Y-63446819D02*
X144898952Y-62446819D01*
X144898952Y-62446819D02*
X144803714Y-62589676D01*
X144803714Y-62589676D02*
X144708476Y-62684914D01*
X144708476Y-62684914D02*
X144613238Y-62732533D01*
X100163333Y-70558819D02*
X99830000Y-70082628D01*
X99591905Y-70558819D02*
X99591905Y-69558819D01*
X99591905Y-69558819D02*
X99972857Y-69558819D01*
X99972857Y-69558819D02*
X100068095Y-69606438D01*
X100068095Y-69606438D02*
X100115714Y-69654057D01*
X100115714Y-69654057D02*
X100163333Y-69749295D01*
X100163333Y-69749295D02*
X100163333Y-69892152D01*
X100163333Y-69892152D02*
X100115714Y-69987390D01*
X100115714Y-69987390D02*
X100068095Y-70035009D01*
X100068095Y-70035009D02*
X99972857Y-70082628D01*
X99972857Y-70082628D02*
X99591905Y-70082628D01*
X101115714Y-70558819D02*
X100544286Y-70558819D01*
X100830000Y-70558819D02*
X100830000Y-69558819D01*
X100830000Y-69558819D02*
X100734762Y-69701676D01*
X100734762Y-69701676D02*
X100639524Y-69796914D01*
X100639524Y-69796914D02*
X100544286Y-69844533D01*
X99060000Y-46940119D02*
X99060000Y-47178214D01*
X98821905Y-47082976D02*
X99060000Y-47178214D01*
X99060000Y-47178214D02*
X99298095Y-47082976D01*
X98917143Y-47368690D02*
X99060000Y-47178214D01*
X99060000Y-47178214D02*
X99202857Y-47368690D01*
X145647580Y-79414666D02*
X145695200Y-79462285D01*
X145695200Y-79462285D02*
X145742819Y-79605142D01*
X145742819Y-79605142D02*
X145742819Y-79700380D01*
X145742819Y-79700380D02*
X145695200Y-79843237D01*
X145695200Y-79843237D02*
X145599961Y-79938475D01*
X145599961Y-79938475D02*
X145504723Y-79986094D01*
X145504723Y-79986094D02*
X145314247Y-80033713D01*
X145314247Y-80033713D02*
X145171390Y-80033713D01*
X145171390Y-80033713D02*
X144980914Y-79986094D01*
X144980914Y-79986094D02*
X144885676Y-79938475D01*
X144885676Y-79938475D02*
X144790438Y-79843237D01*
X144790438Y-79843237D02*
X144742819Y-79700380D01*
X144742819Y-79700380D02*
X144742819Y-79605142D01*
X144742819Y-79605142D02*
X144790438Y-79462285D01*
X144790438Y-79462285D02*
X144838057Y-79414666D01*
X145742819Y-78462285D02*
X145742819Y-79033713D01*
X145742819Y-78747999D02*
X144742819Y-78747999D01*
X144742819Y-78747999D02*
X144885676Y-78843237D01*
X144885676Y-78843237D02*
X144980914Y-78938475D01*
X144980914Y-78938475D02*
X145028533Y-79033713D01*
X130319819Y-42243333D02*
X131034104Y-42243333D01*
X131034104Y-42243333D02*
X131176961Y-42290952D01*
X131176961Y-42290952D02*
X131272200Y-42386190D01*
X131272200Y-42386190D02*
X131319819Y-42529047D01*
X131319819Y-42529047D02*
X131319819Y-42624285D01*
X130319819Y-41862380D02*
X130319819Y-41243333D01*
X130319819Y-41243333D02*
X130700771Y-41576666D01*
X130700771Y-41576666D02*
X130700771Y-41433809D01*
X130700771Y-41433809D02*
X130748390Y-41338571D01*
X130748390Y-41338571D02*
X130796009Y-41290952D01*
X130796009Y-41290952D02*
X130891247Y-41243333D01*
X130891247Y-41243333D02*
X131129342Y-41243333D01*
X131129342Y-41243333D02*
X131224580Y-41290952D01*
X131224580Y-41290952D02*
X131272200Y-41338571D01*
X131272200Y-41338571D02*
X131319819Y-41433809D01*
X131319819Y-41433809D02*
X131319819Y-41719523D01*
X131319819Y-41719523D02*
X131272200Y-41814761D01*
X131272200Y-41814761D02*
X131224580Y-41862380D01*
X130389333Y-70558819D02*
X130056000Y-70082628D01*
X129817905Y-70558819D02*
X129817905Y-69558819D01*
X129817905Y-69558819D02*
X130198857Y-69558819D01*
X130198857Y-69558819D02*
X130294095Y-69606438D01*
X130294095Y-69606438D02*
X130341714Y-69654057D01*
X130341714Y-69654057D02*
X130389333Y-69749295D01*
X130389333Y-69749295D02*
X130389333Y-69892152D01*
X130389333Y-69892152D02*
X130341714Y-69987390D01*
X130341714Y-69987390D02*
X130294095Y-70035009D01*
X130294095Y-70035009D02*
X130198857Y-70082628D01*
X130198857Y-70082628D02*
X129817905Y-70082628D01*
X130770286Y-69654057D02*
X130817905Y-69606438D01*
X130817905Y-69606438D02*
X130913143Y-69558819D01*
X130913143Y-69558819D02*
X131151238Y-69558819D01*
X131151238Y-69558819D02*
X131246476Y-69606438D01*
X131246476Y-69606438D02*
X131294095Y-69654057D01*
X131294095Y-69654057D02*
X131341714Y-69749295D01*
X131341714Y-69749295D02*
X131341714Y-69844533D01*
X131341714Y-69844533D02*
X131294095Y-69987390D01*
X131294095Y-69987390D02*
X130722667Y-70558819D01*
X130722667Y-70558819D02*
X131341714Y-70558819D01*
X114009819Y-42173333D02*
X114724104Y-42173333D01*
X114724104Y-42173333D02*
X114866961Y-42220952D01*
X114866961Y-42220952D02*
X114962200Y-42316190D01*
X114962200Y-42316190D02*
X115009819Y-42459047D01*
X115009819Y-42459047D02*
X115009819Y-42554285D01*
X115009819Y-41173333D02*
X115009819Y-41744761D01*
X115009819Y-41459047D02*
X114009819Y-41459047D01*
X114009819Y-41459047D02*
X114152676Y-41554285D01*
X114152676Y-41554285D02*
X114247914Y-41649523D01*
X114247914Y-41649523D02*
X114295533Y-41744761D01*
X117199580Y-79922666D02*
X117247200Y-79970285D01*
X117247200Y-79970285D02*
X117294819Y-80113142D01*
X117294819Y-80113142D02*
X117294819Y-80208380D01*
X117294819Y-80208380D02*
X117247200Y-80351237D01*
X117247200Y-80351237D02*
X117151961Y-80446475D01*
X117151961Y-80446475D02*
X117056723Y-80494094D01*
X117056723Y-80494094D02*
X116866247Y-80541713D01*
X116866247Y-80541713D02*
X116723390Y-80541713D01*
X116723390Y-80541713D02*
X116532914Y-80494094D01*
X116532914Y-80494094D02*
X116437676Y-80446475D01*
X116437676Y-80446475D02*
X116342438Y-80351237D01*
X116342438Y-80351237D02*
X116294819Y-80208380D01*
X116294819Y-80208380D02*
X116294819Y-80113142D01*
X116294819Y-80113142D02*
X116342438Y-79970285D01*
X116342438Y-79970285D02*
X116390057Y-79922666D01*
X116390057Y-79541713D02*
X116342438Y-79494094D01*
X116342438Y-79494094D02*
X116294819Y-79398856D01*
X116294819Y-79398856D02*
X116294819Y-79160761D01*
X116294819Y-79160761D02*
X116342438Y-79065523D01*
X116342438Y-79065523D02*
X116390057Y-79017904D01*
X116390057Y-79017904D02*
X116485295Y-78970285D01*
X116485295Y-78970285D02*
X116580533Y-78970285D01*
X116580533Y-78970285D02*
X116723390Y-79017904D01*
X116723390Y-79017904D02*
X117294819Y-79589332D01*
X117294819Y-79589332D02*
X117294819Y-78970285D01*
X102362095Y-74130819D02*
X102362095Y-74940342D01*
X102362095Y-74940342D02*
X102409714Y-75035580D01*
X102409714Y-75035580D02*
X102457333Y-75083200D01*
X102457333Y-75083200D02*
X102552571Y-75130819D01*
X102552571Y-75130819D02*
X102743047Y-75130819D01*
X102743047Y-75130819D02*
X102838285Y-75083200D01*
X102838285Y-75083200D02*
X102885904Y-75035580D01*
X102885904Y-75035580D02*
X102933523Y-74940342D01*
X102933523Y-74940342D02*
X102933523Y-74130819D01*
X103933523Y-75130819D02*
X103362095Y-75130819D01*
X103647809Y-75130819D02*
X103647809Y-74130819D01*
X103647809Y-74130819D02*
X103552571Y-74273676D01*
X103552571Y-74273676D02*
X103457333Y-74368914D01*
X103457333Y-74368914D02*
X103362095Y-74416533D01*
X144446666Y-98724819D02*
X144446666Y-99439104D01*
X144446666Y-99439104D02*
X144399047Y-99581961D01*
X144399047Y-99581961D02*
X144303809Y-99677200D01*
X144303809Y-99677200D02*
X144160952Y-99724819D01*
X144160952Y-99724819D02*
X144065714Y-99724819D01*
X145351428Y-99058152D02*
X145351428Y-99724819D01*
X145113333Y-98677200D02*
X144875238Y-99391485D01*
X144875238Y-99391485D02*
X145494285Y-99391485D01*
X117276666Y-120314819D02*
X117276666Y-121029104D01*
X117276666Y-121029104D02*
X117229047Y-121171961D01*
X117229047Y-121171961D02*
X117133809Y-121267200D01*
X117133809Y-121267200D02*
X116990952Y-121314819D01*
X116990952Y-121314819D02*
X116895714Y-121314819D01*
X117752857Y-121314819D02*
X117752857Y-120314819D01*
X117752857Y-120314819D02*
X118133809Y-120314819D01*
X118133809Y-120314819D02*
X118229047Y-120362438D01*
X118229047Y-120362438D02*
X118276666Y-120410057D01*
X118276666Y-120410057D02*
X118324285Y-120505295D01*
X118324285Y-120505295D02*
X118324285Y-120648152D01*
X118324285Y-120648152D02*
X118276666Y-120743390D01*
X118276666Y-120743390D02*
X118229047Y-120791009D01*
X118229047Y-120791009D02*
X118133809Y-120838628D01*
X118133809Y-120838628D02*
X117752857Y-120838628D01*
X119229047Y-120314819D02*
X118752857Y-120314819D01*
X118752857Y-120314819D02*
X118705238Y-120791009D01*
X118705238Y-120791009D02*
X118752857Y-120743390D01*
X118752857Y-120743390D02*
X118848095Y-120695771D01*
X118848095Y-120695771D02*
X119086190Y-120695771D01*
X119086190Y-120695771D02*
X119181428Y-120743390D01*
X119181428Y-120743390D02*
X119229047Y-120791009D01*
X119229047Y-120791009D02*
X119276666Y-120886247D01*
X119276666Y-120886247D02*
X119276666Y-121124342D01*
X119276666Y-121124342D02*
X119229047Y-121219580D01*
X119229047Y-121219580D02*
X119181428Y-121267200D01*
X119181428Y-121267200D02*
X119086190Y-121314819D01*
X119086190Y-121314819D02*
X118848095Y-121314819D01*
X118848095Y-121314819D02*
X118752857Y-121267200D01*
X118752857Y-121267200D02*
X118705238Y-121219580D01*
X132113095Y-74130819D02*
X132113095Y-74940342D01*
X132113095Y-74940342D02*
X132160714Y-75035580D01*
X132160714Y-75035580D02*
X132208333Y-75083200D01*
X132208333Y-75083200D02*
X132303571Y-75130819D01*
X132303571Y-75130819D02*
X132494047Y-75130819D01*
X132494047Y-75130819D02*
X132589285Y-75083200D01*
X132589285Y-75083200D02*
X132636904Y-75035580D01*
X132636904Y-75035580D02*
X132684523Y-74940342D01*
X132684523Y-74940342D02*
X132684523Y-74130819D01*
X133113095Y-74226057D02*
X133160714Y-74178438D01*
X133160714Y-74178438D02*
X133255952Y-74130819D01*
X133255952Y-74130819D02*
X133494047Y-74130819D01*
X133494047Y-74130819D02*
X133589285Y-74178438D01*
X133589285Y-74178438D02*
X133636904Y-74226057D01*
X133636904Y-74226057D02*
X133684523Y-74321295D01*
X133684523Y-74321295D02*
X133684523Y-74416533D01*
X133684523Y-74416533D02*
X133636904Y-74559390D01*
X133636904Y-74559390D02*
X133065476Y-75130819D01*
X133065476Y-75130819D02*
X133684523Y-75130819D01*
D11*
%TO.C,J5*%
X89475000Y-100270000D02*
X90805000Y-100270000D01*
X89475000Y-101600000D02*
X89475000Y-100270000D01*
X89475000Y-102870000D02*
X89475000Y-130870000D01*
X89475000Y-102870000D02*
X92075000Y-102870000D01*
X89475000Y-130870000D02*
X94675000Y-130870000D01*
X92075000Y-100270000D02*
X94675000Y-100270000D01*
X92075000Y-102870000D02*
X92075000Y-100270000D01*
X94675000Y-100270000D02*
X94675000Y-130870000D01*
%TO.C,J2*%
X89820000Y-43245000D02*
X89820000Y-41915000D01*
X91150000Y-43245000D02*
X89820000Y-43245000D01*
X92420000Y-40585000D02*
X105180000Y-40585000D01*
X92420000Y-43245000D02*
X92420000Y-40585000D01*
X92420000Y-43245000D02*
X105180000Y-43245000D01*
X105180000Y-43245000D02*
X105180000Y-40585000D01*
%TO.C,JP2*%
X141672000Y-55312000D02*
X143002000Y-55312000D01*
X141672000Y-56642000D02*
X141672000Y-55312000D01*
X141672000Y-57912000D02*
X141672000Y-60512000D01*
X141672000Y-57912000D02*
X144272000Y-57912000D01*
X141672000Y-60512000D02*
X146872000Y-60512000D01*
X144272000Y-55312000D02*
X146872000Y-55312000D01*
X144272000Y-57912000D02*
X144272000Y-55312000D01*
X146872000Y-55312000D02*
X146872000Y-60512000D01*
%TO.C,JP4*%
X115510000Y-101540000D02*
X116840000Y-101540000D01*
X115510000Y-102870000D02*
X115510000Y-101540000D01*
X115510000Y-104140000D02*
X115510000Y-119440000D01*
X115510000Y-104140000D02*
X118110000Y-104140000D01*
X115510000Y-119440000D02*
X120710000Y-119440000D01*
X118110000Y-101540000D02*
X120710000Y-101540000D01*
X118110000Y-104140000D02*
X118110000Y-101540000D01*
X120710000Y-101540000D02*
X120710000Y-119440000D01*
%TO.C,JP3*%
X115510000Y-93920000D02*
X116840000Y-93920000D01*
X115510000Y-95250000D02*
X115510000Y-93920000D01*
X115510000Y-96520000D02*
X115510000Y-99120000D01*
X115510000Y-96520000D02*
X118110000Y-96520000D01*
X115510000Y-99120000D02*
X120710000Y-99120000D01*
X118110000Y-93920000D02*
X120710000Y-93920000D01*
X118110000Y-96520000D02*
X118110000Y-93920000D01*
X120710000Y-93920000D02*
X120710000Y-99120000D01*
%TO.C,JP1*%
X141672000Y-63948000D02*
X143002000Y-63948000D01*
X141672000Y-65278000D02*
X141672000Y-63948000D01*
X141672000Y-66548000D02*
X141672000Y-69148000D01*
X141672000Y-66548000D02*
X144272000Y-66548000D01*
X141672000Y-69148000D02*
X146872000Y-69148000D01*
X144272000Y-63948000D02*
X146872000Y-63948000D01*
X144272000Y-66548000D02*
X144272000Y-63948000D01*
X146872000Y-63948000D02*
X146872000Y-69148000D01*
D12*
%TO.C,R1*%
X99631500Y-46672500D02*
X99631500Y-47914560D01*
X99631500Y-49875440D02*
X99631500Y-50638351D01*
X99631500Y-52231649D02*
X99631500Y-53178351D01*
X99631500Y-54771649D02*
X99631500Y-55718351D01*
X99631500Y-57311649D02*
X99631500Y-58258351D01*
X99631500Y-59851649D02*
X99631500Y-60798351D01*
X99631500Y-62391649D02*
X99631500Y-63338351D01*
X99631500Y-64931649D02*
X99631500Y-65878351D01*
X99631500Y-67471649D02*
X99631500Y-68897500D01*
X99631500Y-68897500D02*
X106616500Y-68897500D01*
X106616500Y-46672500D02*
X99631500Y-46672500D01*
X106616500Y-48098351D02*
X106616500Y-46672500D01*
X106616500Y-50638351D02*
X106616500Y-49691649D01*
X106616500Y-53178351D02*
X106616500Y-52231649D01*
X106616500Y-55718351D02*
X106616500Y-54771649D01*
X106616500Y-58258351D02*
X106616500Y-57311649D01*
X106616500Y-60798351D02*
X106616500Y-59851649D01*
X106616500Y-63338351D02*
X106616500Y-62391649D01*
X106616500Y-65878351D02*
X106616500Y-64931649D01*
X106616500Y-68897500D02*
X106616500Y-67471649D01*
D13*
%TO.C,C1*%
X141752000Y-75685000D02*
X141752000Y-82985000D01*
X144252000Y-75685000D02*
X141752000Y-75685000D01*
X144252000Y-75685000D02*
X144252000Y-82985000D01*
X144252000Y-82985000D02*
X141752000Y-82985000D01*
D11*
%TO.C,J3*%
X131865000Y-43240000D02*
X131865000Y-41910000D01*
X133195000Y-43240000D02*
X131865000Y-43240000D01*
X134465000Y-40580000D02*
X147225000Y-40580000D01*
X134465000Y-43240000D02*
X134465000Y-40580000D01*
X134465000Y-43240000D02*
X147225000Y-43240000D01*
X147225000Y-43240000D02*
X147225000Y-40580000D01*
D12*
%TO.C,R2*%
X129603500Y-46672500D02*
X129603500Y-47914560D01*
X129603500Y-49875440D02*
X129603500Y-50638351D01*
X129603500Y-52231649D02*
X129603500Y-53178351D01*
X129603500Y-54771649D02*
X129603500Y-55718351D01*
X129603500Y-57311649D02*
X129603500Y-58258351D01*
X129603500Y-59851649D02*
X129603500Y-60798351D01*
X129603500Y-62391649D02*
X129603500Y-63338351D01*
X129603500Y-64931649D02*
X129603500Y-65878351D01*
X129603500Y-67471649D02*
X129603500Y-68897500D01*
X129603500Y-68897500D02*
X136588500Y-68897500D01*
X136588500Y-46672500D02*
X129603500Y-46672500D01*
X136588500Y-48098351D02*
X136588500Y-46672500D01*
X136588500Y-50638351D02*
X136588500Y-49691649D01*
X136588500Y-53178351D02*
X136588500Y-52231649D01*
X136588500Y-55718351D02*
X136588500Y-54771649D01*
X136588500Y-58258351D02*
X136588500Y-57311649D01*
X136588500Y-60798351D02*
X136588500Y-59851649D01*
X136588500Y-63338351D02*
X136588500Y-62391649D01*
X136588500Y-65878351D02*
X136588500Y-64931649D01*
X136588500Y-68897500D02*
X136588500Y-67471649D01*
D11*
%TO.C,J1*%
X115555000Y-43170000D02*
X115555000Y-41840000D01*
X116885000Y-43170000D02*
X115555000Y-43170000D01*
X118155000Y-40510000D02*
X120755000Y-40510000D01*
X118155000Y-43170000D02*
X118155000Y-40510000D01*
X118155000Y-43170000D02*
X120755000Y-43170000D01*
X120755000Y-43170000D02*
X120755000Y-40510000D01*
D13*
%TO.C,C2*%
X112796000Y-76106000D02*
X112796000Y-83406000D01*
X115296000Y-76106000D02*
X112796000Y-76106000D01*
X115296000Y-76106000D02*
X115296000Y-83406000D01*
X115296000Y-83406000D02*
X112796000Y-83406000D01*
%TO.C,U1*%
X100043000Y-75950000D02*
X106393000Y-75950000D01*
X100043000Y-95500000D02*
X106393000Y-95500000D01*
D14*
X98283000Y-76835000D02*
G75*
G02*
X98083000Y-76835000I-100000J0D01*
G01*
X98083000Y-76835000D02*
G75*
G02*
X98283000Y-76835000I100000J0D01*
G01*
D11*
%TO.C,J4*%
X142180000Y-100270000D02*
X143510000Y-100270000D01*
X142180000Y-101600000D02*
X142180000Y-100270000D01*
X142180000Y-102870000D02*
X142180000Y-130870000D01*
X142180000Y-102870000D02*
X144780000Y-102870000D01*
X142180000Y-130870000D02*
X147380000Y-130870000D01*
X144780000Y-100270000D02*
X147380000Y-100270000D01*
X144780000Y-102870000D02*
X144780000Y-100270000D01*
X147380000Y-100270000D02*
X147380000Y-130870000D01*
%TO.C,JP5*%
X115510000Y-121860000D02*
X116840000Y-121860000D01*
X115510000Y-123190000D02*
X115510000Y-121860000D01*
X115510000Y-124460000D02*
X115510000Y-139760000D01*
X115510000Y-124460000D02*
X118110000Y-124460000D01*
X115510000Y-139760000D02*
X120710000Y-139760000D01*
X118110000Y-121860000D02*
X120710000Y-121860000D01*
X118110000Y-124460000D02*
X118110000Y-121860000D01*
X120710000Y-121860000D02*
X120710000Y-139760000D01*
D13*
%TO.C,U2*%
X129700000Y-75950000D02*
X136050000Y-75950000D01*
X129700000Y-95500000D02*
X136050000Y-95500000D01*
D14*
X127940000Y-76835000D02*
G75*
G02*
X127740000Y-76835000I-100000J0D01*
G01*
X127740000Y-76835000D02*
G75*
G02*
X127940000Y-76835000I100000J0D01*
G01*
%TD*%
M02*
