M48
; DRILL file {KiCad 8.0.6} date 2025-09-07T21:00:48+0200
; FORMAT={-:-/ absolute / metric / decimal}
; #@! TF.CreationDate,2025-09-07T21:00:48+02:00
; #@! TF.GenerationSoftware,Kicad,Pcbnew,8.0.6
; #@! TF.FileFunction,MixedPlating,1,2
FMAT,2
METRIC
; #@! TA.AperFunction,Plated,PTH,ViaDrill
T1C0.300
; #@! TA.AperFunction,Plated,PTH,ComponentDrill
T2C0.800
; #@! TA.AperFunction,Plated,PTH,ComponentDrill
T3C0.813
; #@! TA.AperFunction,Plated,PTH,ComponentDrill
T4C0.889
; #@! TA.AperFunction,Plated,PTH,ComponentDrill
T5C1.000
; #@! TA.AperFunction,Plated,PTH,ComponentDrill
T6C1.100
; #@! TA.AperFunction,Plated,PTH,ComponentDrill
T7C1.143
; #@! TA.AperFunction,NonPlated,NPTH,ComponentDrill
T8C1.800
; #@! TA.AperFunction,NonPlated,NPTH,ComponentDrill
T9C3.200
%
G90
G05
T1
X123.444Y-108.458
X123.444Y-110.236
X124.714Y-83.404
X133.096Y-109.22
X133.35Y-90.678
X137.414Y-102.362
X137.414Y-109.22
X141.986Y-92.202
X148.082Y-100.838
X151.638Y-93.726
X154.94Y-103.378
X167.132Y-82.296
T3
X151.638Y-98.222
X151.638Y-100.838
X151.638Y-103.454
X151.638Y-106.07
X151.638Y-108.687
X151.638Y-111.303
T4
X149.733Y-80.772
X149.86Y-75.184
X149.987Y-69.85
X161.163Y-80.772
X161.29Y-75.184
X161.417Y-69.85
T5
X97.79Y-70.094
X97.79Y-85.334
X100.33Y-70.094
X100.33Y-85.334
X102.616Y-53.34
X102.616Y-55.88
X102.87Y-70.094
X102.87Y-85.334
X105.156Y-53.34
X105.156Y-55.88
X105.41Y-70.094
X105.41Y-85.334
X107.696Y-53.34
X107.696Y-55.88
X107.95Y-70.094
X107.95Y-85.334
X110.236Y-53.34
X110.236Y-55.88
X110.49Y-70.094
X110.49Y-85.334
X112.776Y-53.34
X112.776Y-55.88
X113.03Y-70.094
X113.03Y-85.334
X115.316Y-53.34
X115.316Y-55.88
X115.57Y-70.094
X115.57Y-85.334
X117.856Y-53.34
X117.856Y-55.88
X118.11Y-70.094
X118.11Y-85.334
X120.396Y-53.34
X120.396Y-55.88
X120.65Y-70.094
X120.65Y-85.334
X122.936Y-53.34
X122.936Y-55.88
X123.19Y-70.094
X123.19Y-85.334
X125.476Y-53.34
X125.476Y-55.88
X125.73Y-70.094
X125.73Y-85.334
X128.016Y-53.34
X128.016Y-55.88
X128.27Y-70.094
X128.27Y-85.334
X130.556Y-53.34
X130.556Y-55.88
X130.81Y-70.094
X130.81Y-85.334
X133.35Y-70.094
X133.35Y-85.334
X150.622Y-53.34
X150.622Y-55.88
X153.162Y-53.34
X153.162Y-55.88
X155.702Y-53.34
X155.702Y-55.88
X158.242Y-53.34
X158.242Y-55.88
X160.782Y-53.34
X160.782Y-55.88
X163.322Y-53.34
X163.322Y-55.88
X165.862Y-53.34
X165.862Y-55.88
X168.402Y-53.34
X168.402Y-55.88
X170.942Y-53.34
X170.942Y-55.88
X173.482Y-53.34
X173.482Y-55.88
X176.022Y-53.34
X176.022Y-55.88
X178.562Y-53.34
X178.562Y-55.88
X186.436Y-53.34
X186.436Y-61.214
X186.436Y-85.09
X188.976Y-53.34
X188.976Y-61.214
X188.976Y-85.09
T6
X95.504Y-97.79
X95.504Y-113.03
X98.044Y-97.79
X98.044Y-113.03
X100.584Y-97.79
X100.584Y-113.03
X103.124Y-97.79
X103.124Y-113.03
X105.664Y-97.79
X105.664Y-113.03
X108.204Y-97.79
X108.204Y-113.03
X110.744Y-97.79
X110.744Y-113.03
X113.284Y-97.79
X113.284Y-113.03
X115.824Y-97.79
X115.824Y-113.03
X118.364Y-97.79
X118.364Y-113.03
X120.904Y-97.79
X120.904Y-113.03
X123.444Y-97.79
X123.444Y-113.03
X125.984Y-97.79
X125.984Y-113.03
X128.524Y-97.79
X128.524Y-113.03
X131.064Y-97.79
X131.064Y-113.03
X133.604Y-97.79
X133.604Y-113.03
X136.144Y-97.79
X136.144Y-113.03
X138.684Y-97.79
X138.684Y-113.03
X141.224Y-97.79
X141.224Y-113.03
X143.764Y-97.79
X143.764Y-113.03
X160.528Y-91.44
X161.544Y-96.266
X161.544Y-98.806
X161.544Y-101.346
X161.544Y-103.886
X161.544Y-106.426
X161.544Y-108.966
X161.544Y-111.506
X161.544Y-114.046
X161.544Y-116.586
X161.544Y-119.126
X162.306Y-123.952
X186.436Y-123.952
T7
X169.164Y-72.136
X169.164Y-74.676
X169.164Y-77.216
T8
X91.552Y-122.682
X98.552Y-122.682
T9
X91.186Y-44.958
X91.186Y-133.35
X194.31Y-44.958
X194.31Y-133.35
T2
G00X89.952Y-120.142
M15
G01X89.152Y-120.142
M16
G05
G00X90.752Y-125.222
M15
G01X90.152Y-125.222
M16
G05
G00X92.752Y-120.142
M15
G01X91.952Y-120.142
M16
G05
G00X100.452Y-125.002
M15
G01X99.252Y-125.002
M16
G05
T5
G00X176.954Y-75.268
M15
G01X176.954Y-73.068
M16
G05
G00X181.054Y-69.168
M15
G01X178.854Y-69.168
M16
G05
G00X183.254Y-75.268
M15
G01X183.254Y-73.068
M16
G05
M30
