%TF.GenerationSoftware,KiCad,Pcbnew,8.0.6*%
%TF.CreationDate,2025-09-07T21:00:42+02:00*%
%TF.ProjectId,main_board,6d61696e-5f62-46f6-9172-642e6b696361,rev?*%
%TF.SameCoordinates,Original*%
%TF.FileFunction,Legend,Bot*%
%TF.FilePolarity,Positive*%
%FSLAX46Y46*%
G04 Gerber Fmt 4.6, Leading zero omitted, Abs format (unit mm)*
G04 Created by KiCad (PCBNEW 8.0.6) date 2025-09-07 21:00:42*
%MOMM*%
%LPD*%
G01*
G04 APERTURE LIST*
%ADD10R,1.700000X1.700000*%
%ADD11O,1.700000X1.700000*%
%ADD12R,1.320800X1.320800*%
%ADD13C,1.320800*%
%ADD14O,2.604000X1.404000*%
%ADD15O,2.820000X1.512000*%
%ADD16C,1.800000*%
%ADD17R,1.397000X1.397000*%
%ADD18C,1.397000*%
%ADD19C,3.200000*%
%ADD20R,1.600000X1.600000*%
%ADD21O,1.600000X1.600000*%
%ADD22C,1.700000*%
%ADD23R,1.651000X1.651000*%
%ADD24C,1.651000*%
%ADD25O,2.000000X4.200000*%
%ADD26O,4.200000X2.000000*%
%ADD27C,4.000000*%
G04 APERTURE END LIST*
%LPC*%
D10*
X178562000Y-53340000D03*
D11*
X178562000Y-55880000D03*
X176022000Y-53340000D03*
X176022000Y-55880000D03*
X173482000Y-53340000D03*
X173482000Y-55880000D03*
X170942000Y-53340000D03*
X170942000Y-55880000D03*
X168402000Y-53340000D03*
X168402000Y-55880000D03*
X165862000Y-53340000D03*
X165862000Y-55880000D03*
X163322000Y-53340000D03*
X163322000Y-55880000D03*
X160782000Y-53340000D03*
X160782000Y-55880000D03*
X158242000Y-53340000D03*
X158242000Y-55880000D03*
X155702000Y-53340000D03*
X155702000Y-55880000D03*
X153162000Y-53340000D03*
X153162000Y-55880000D03*
X150622000Y-53340000D03*
X150622000Y-55880000D03*
D10*
X186436000Y-61214000D03*
D11*
X188976000Y-61214000D03*
D12*
X151638000Y-98221800D03*
D13*
X151638000Y-100838000D03*
X151638000Y-103454200D03*
X151638000Y-106070400D03*
X151638000Y-108686600D03*
X151638000Y-111302800D03*
D10*
X186436000Y-53340000D03*
D11*
X188976000Y-53340000D03*
D14*
X92352000Y-120142000D03*
X89552000Y-120142000D03*
D15*
X99852000Y-125002000D03*
D14*
X90452000Y-125222000D03*
D16*
X91552000Y-122682000D03*
X98552000Y-122682000D03*
D17*
X149733000Y-80772000D03*
D18*
X161163000Y-80772000D03*
D19*
X91186000Y-44958000D03*
D20*
X97790000Y-85334000D03*
D21*
X100330000Y-85334000D03*
X102870000Y-85334000D03*
X105410000Y-85334000D03*
X107950000Y-85334000D03*
X110490000Y-85334000D03*
X113030000Y-85334000D03*
X115570000Y-85334000D03*
X118110000Y-85334000D03*
X120650000Y-85334000D03*
X123190000Y-85334000D03*
X125730000Y-85334000D03*
X128270000Y-85334000D03*
X130810000Y-85334000D03*
X133350000Y-85334000D03*
X133350000Y-70094000D03*
X130810000Y-70094000D03*
X128270000Y-70094000D03*
X125730000Y-70094000D03*
X123190000Y-70094000D03*
X120650000Y-70094000D03*
X118110000Y-70094000D03*
X115570000Y-70094000D03*
X113030000Y-70094000D03*
X110490000Y-70094000D03*
X107950000Y-70094000D03*
X105410000Y-70094000D03*
X102870000Y-70094000D03*
X100330000Y-70094000D03*
X97790000Y-70094000D03*
D17*
X149987000Y-69850000D03*
D18*
X161417000Y-69850000D03*
D19*
X194310000Y-133350000D03*
D17*
X149860000Y-75184000D03*
D18*
X161290000Y-75184000D03*
D10*
X95504000Y-113030000D03*
D22*
X98044000Y-113030000D03*
X100584000Y-113030000D03*
X103124000Y-113030000D03*
X105664000Y-113030000D03*
X108204000Y-113030000D03*
X110744000Y-113030000D03*
X113284000Y-113030000D03*
X115824000Y-113030000D03*
X118364000Y-113030000D03*
X120904000Y-113030000D03*
X123444000Y-113030000D03*
X125984000Y-113030000D03*
X128524000Y-113030000D03*
X131064000Y-113030000D03*
X133604000Y-113030000D03*
X136144000Y-113030000D03*
X138684000Y-113030000D03*
X141224000Y-113030000D03*
X143764000Y-113030000D03*
X143764000Y-97790000D03*
X141224000Y-97790000D03*
X138684000Y-97790000D03*
X136144000Y-97790000D03*
X133604000Y-97790000D03*
X131064000Y-97790000D03*
X128524000Y-97790000D03*
X125984000Y-97790000D03*
X123444000Y-97790000D03*
X120904000Y-97790000D03*
X118364000Y-97790000D03*
X115824000Y-97790000D03*
X113284000Y-97790000D03*
X110744000Y-97790000D03*
X108204000Y-97790000D03*
X105664000Y-97790000D03*
X103124000Y-97790000D03*
X100584000Y-97790000D03*
X98044000Y-97790000D03*
X95504000Y-97790000D03*
D23*
X169164000Y-77216000D03*
D24*
X169164000Y-74676000D03*
X169164000Y-72136000D03*
D19*
X194310000Y-44958000D03*
X91186000Y-133350000D03*
D10*
X130556000Y-53340000D03*
D11*
X130556000Y-55880000D03*
X128016000Y-53340000D03*
X128016000Y-55880000D03*
X125476000Y-53340000D03*
X125476000Y-55880000D03*
X122936000Y-53340000D03*
X122936000Y-55880000D03*
X120396000Y-53340000D03*
X120396000Y-55880000D03*
X117856000Y-53340000D03*
X117856000Y-55880000D03*
X115316000Y-53340000D03*
X115316000Y-55880000D03*
X112776000Y-53340000D03*
X112776000Y-55880000D03*
X110236000Y-53340000D03*
X110236000Y-55880000D03*
X107696000Y-53340000D03*
X107696000Y-55880000D03*
X105156000Y-53340000D03*
X105156000Y-55880000D03*
X102616000Y-53340000D03*
X102616000Y-55880000D03*
D25*
X176954000Y-74168000D03*
X183254000Y-74168000D03*
D26*
X179954000Y-69168000D03*
D10*
X188976000Y-85090000D03*
D11*
X186436000Y-85090000D03*
D10*
X161544000Y-119126000D03*
D22*
X161544000Y-116586000D03*
X161544000Y-114046000D03*
X161544000Y-111506000D03*
X161544000Y-108966000D03*
X161544000Y-106426000D03*
X161544000Y-103886000D03*
X161544000Y-101346000D03*
X161544000Y-98806000D03*
X161544000Y-96266000D03*
D27*
X186436000Y-123952000D03*
X162306000Y-123952000D03*
X160528000Y-91440000D03*
%LPD*%
M02*
