%TF.GenerationSoftware,KiCad,Pcbnew,8.0.6*%
%TF.CreationDate,2025-09-07T21:00:42+02:00*%
%TF.ProjectId,main_board,6d61696e-5f62-46f6-9172-642e6b696361,rev?*%
%TF.SameCoordinates,Original*%
%TF.FileFunction,Copper,L2,Bot*%
%TF.FilePolarity,Positive*%
%FSLAX46Y46*%
G04 Gerber Fmt 4.6, Leading zero omitted, Abs format (unit mm)*
G04 Created by KiCad (PCBNEW 8.0.6) date 2025-09-07 21:00:42*
%MOMM*%
%LPD*%
G01*
G04 APERTURE LIST*
%TA.AperFunction,ComponentPad*%
%ADD10R,1.700000X1.700000*%
%TD*%
%TA.AperFunction,ComponentPad*%
%ADD11O,1.700000X1.700000*%
%TD*%
%TA.AperFunction,ComponentPad*%
%ADD12R,1.320800X1.320800*%
%TD*%
%TA.AperFunction,ComponentPad*%
%ADD13C,1.320800*%
%TD*%
%TA.AperFunction,ComponentPad*%
%ADD14O,2.400000X1.200000*%
%TD*%
%TA.AperFunction,ComponentPad*%
%ADD15O,2.616000X1.308000*%
%TD*%
%TA.AperFunction,ComponentPad*%
%ADD16R,1.397000X1.397000*%
%TD*%
%TA.AperFunction,ComponentPad*%
%ADD17C,1.397000*%
%TD*%
%TA.AperFunction,ComponentPad*%
%ADD18R,1.600000X1.600000*%
%TD*%
%TA.AperFunction,ComponentPad*%
%ADD19O,1.600000X1.600000*%
%TD*%
%TA.AperFunction,ComponentPad*%
%ADD20C,1.700000*%
%TD*%
%TA.AperFunction,ComponentPad*%
%ADD21R,1.651000X1.651000*%
%TD*%
%TA.AperFunction,ComponentPad*%
%ADD22C,1.651000*%
%TD*%
%TA.AperFunction,ComponentPad*%
%ADD23O,2.000000X4.200000*%
%TD*%
%TA.AperFunction,ComponentPad*%
%ADD24O,4.200000X2.000000*%
%TD*%
%TA.AperFunction,ComponentPad*%
%ADD25C,4.000000*%
%TD*%
%TA.AperFunction,ViaPad*%
%ADD26C,0.600000*%
%TD*%
%TA.AperFunction,Conductor*%
%ADD27C,0.200000*%
%TD*%
G04 APERTURE END LIST*
D10*
X178562000Y-53340000D03*
D11*
X178562000Y-55880000D03*
X176022000Y-53340000D03*
X176022000Y-55880000D03*
X173482000Y-53340000D03*
X173482000Y-55880000D03*
X170942000Y-53340000D03*
X170942000Y-55880000D03*
X168402000Y-53340000D03*
X168402000Y-55880000D03*
X165862000Y-53340000D03*
X165862000Y-55880000D03*
X163322000Y-53340000D03*
X163322000Y-55880000D03*
X160782000Y-53340000D03*
X160782000Y-55880000D03*
X158242000Y-53340000D03*
X158242000Y-55880000D03*
X155702000Y-53340000D03*
X155702000Y-55880000D03*
X153162000Y-53340000D03*
X153162000Y-55880000D03*
X150622000Y-53340000D03*
X150622000Y-55880000D03*
D10*
X186436000Y-61214000D03*
D11*
X188976000Y-61214000D03*
D12*
X151638000Y-98221800D03*
D13*
X151638000Y-100838000D03*
X151638000Y-103454200D03*
X151638000Y-106070400D03*
X151638000Y-108686600D03*
X151638000Y-111302800D03*
D10*
X186436000Y-53340000D03*
D11*
X188976000Y-53340000D03*
D14*
X92352000Y-120142000D03*
X89552000Y-120142000D03*
D15*
X99852000Y-125002000D03*
D14*
X90452000Y-125222000D03*
D16*
X149733000Y-80772000D03*
D17*
X161163000Y-80772000D03*
D18*
X97790000Y-85334000D03*
D19*
X100330000Y-85334000D03*
X102870000Y-85334000D03*
X105410000Y-85334000D03*
X107950000Y-85334000D03*
X110490000Y-85334000D03*
X113030000Y-85334000D03*
X115570000Y-85334000D03*
X118110000Y-85334000D03*
X120650000Y-85334000D03*
X123190000Y-85334000D03*
X125730000Y-85334000D03*
X128270000Y-85334000D03*
X130810000Y-85334000D03*
X133350000Y-85334000D03*
X133350000Y-70094000D03*
X130810000Y-70094000D03*
X128270000Y-70094000D03*
X125730000Y-70094000D03*
X123190000Y-70094000D03*
X120650000Y-70094000D03*
X118110000Y-70094000D03*
X115570000Y-70094000D03*
X113030000Y-70094000D03*
X110490000Y-70094000D03*
X107950000Y-70094000D03*
X105410000Y-70094000D03*
X102870000Y-70094000D03*
X100330000Y-70094000D03*
X97790000Y-70094000D03*
D16*
X149987000Y-69850000D03*
D17*
X161417000Y-69850000D03*
D16*
X149860000Y-75184000D03*
D17*
X161290000Y-75184000D03*
D10*
X95504000Y-113030000D03*
D20*
X98044000Y-113030000D03*
X100584000Y-113030000D03*
X103124000Y-113030000D03*
X105664000Y-113030000D03*
X108204000Y-113030000D03*
X110744000Y-113030000D03*
X113284000Y-113030000D03*
X115824000Y-113030000D03*
X118364000Y-113030000D03*
X120904000Y-113030000D03*
X123444000Y-113030000D03*
X125984000Y-113030000D03*
X128524000Y-113030000D03*
X131064000Y-113030000D03*
X133604000Y-113030000D03*
X136144000Y-113030000D03*
X138684000Y-113030000D03*
X141224000Y-113030000D03*
X143764000Y-113030000D03*
X143764000Y-97790000D03*
X141224000Y-97790000D03*
X138684000Y-97790000D03*
X136144000Y-97790000D03*
X133604000Y-97790000D03*
X131064000Y-97790000D03*
X128524000Y-97790000D03*
X125984000Y-97790000D03*
X123444000Y-97790000D03*
X120904000Y-97790000D03*
X118364000Y-97790000D03*
X115824000Y-97790000D03*
X113284000Y-97790000D03*
X110744000Y-97790000D03*
X108204000Y-97790000D03*
X105664000Y-97790000D03*
X103124000Y-97790000D03*
X100584000Y-97790000D03*
X98044000Y-97790000D03*
X95504000Y-97790000D03*
D21*
X169164000Y-77216000D03*
D22*
X169164000Y-74676000D03*
X169164000Y-72136000D03*
D10*
X130556000Y-53340000D03*
D11*
X130556000Y-55880000D03*
X128016000Y-53340000D03*
X128016000Y-55880000D03*
X125476000Y-53340000D03*
X125476000Y-55880000D03*
X122936000Y-53340000D03*
X122936000Y-55880000D03*
X120396000Y-53340000D03*
X120396000Y-55880000D03*
X117856000Y-53340000D03*
X117856000Y-55880000D03*
X115316000Y-53340000D03*
X115316000Y-55880000D03*
X112776000Y-53340000D03*
X112776000Y-55880000D03*
X110236000Y-53340000D03*
X110236000Y-55880000D03*
X107696000Y-53340000D03*
X107696000Y-55880000D03*
X105156000Y-53340000D03*
X105156000Y-55880000D03*
X102616000Y-53340000D03*
X102616000Y-55880000D03*
D23*
X176954000Y-74168000D03*
X183254000Y-74168000D03*
D24*
X179954000Y-69168000D03*
D10*
X188976000Y-85090000D03*
D11*
X186436000Y-85090000D03*
D10*
X161544000Y-119126000D03*
D20*
X161544000Y-116586000D03*
X161544000Y-114046000D03*
X161544000Y-111506000D03*
X161544000Y-108966000D03*
X161544000Y-106426000D03*
X161544000Y-103886000D03*
X161544000Y-101346000D03*
X161544000Y-98806000D03*
X161544000Y-96266000D03*
D25*
X186436000Y-123952000D03*
X162306000Y-123952000D03*
X160528000Y-91440000D03*
D26*
X124714000Y-83404000D03*
X167132000Y-82296000D03*
X133350000Y-90678000D03*
X137414000Y-102362000D03*
X141986000Y-92202000D03*
X133096000Y-109220000D03*
X137414000Y-109220000D03*
X154940000Y-103378000D03*
X151638000Y-93726000D03*
X123444000Y-110236000D03*
X123444000Y-108458000D03*
X148082000Y-100838000D03*
D27*
X138684000Y-120142000D02*
X138684000Y-113030000D01*
X92352000Y-120142000D02*
X138684000Y-120142000D01*
X151638000Y-112014000D02*
X151638000Y-111302800D01*
X160274000Y-120650000D02*
X151638000Y-112014000D01*
X163068000Y-118110000D02*
X163068000Y-120650000D01*
X163068000Y-120650000D02*
X160274000Y-120650000D01*
X161544000Y-116586000D02*
X163068000Y-118110000D01*
X120396000Y-62728000D02*
X113030000Y-70094000D01*
X120396000Y-55880000D02*
X120396000Y-62728000D01*
X133350000Y-70094000D02*
X149743000Y-70094000D01*
X149743000Y-70094000D02*
X149987000Y-69850000D01*
X122936000Y-65268000D02*
X118110000Y-70094000D01*
X122936000Y-55880000D02*
X122936000Y-65268000D01*
X117856000Y-60188000D02*
X107950000Y-70094000D01*
X117856000Y-55880000D02*
X117856000Y-60188000D01*
X112776000Y-53340000D02*
X112776000Y-46736000D01*
X113926000Y-54490000D02*
X113926000Y-56498000D01*
X159512000Y-53340000D02*
X160782000Y-53340000D01*
X112776000Y-46736000D02*
X140462000Y-46736000D01*
X112776000Y-53340000D02*
X113926000Y-54490000D01*
X140462000Y-46736000D02*
X140462000Y-59436000D01*
X159512000Y-59436000D02*
X159512000Y-53340000D01*
X140462000Y-59436000D02*
X159512000Y-59436000D01*
X113926000Y-56498000D02*
X100330000Y-70094000D01*
X169164000Y-74676000D02*
X170815000Y-76327000D01*
X167132000Y-82296000D02*
X168402000Y-83566000D01*
X130810000Y-85334000D02*
X130810000Y-91440000D01*
X130810000Y-83404000D02*
X130810000Y-85334000D01*
X153162000Y-49784000D02*
X179070000Y-49784000D01*
X151892000Y-53340000D02*
X153162000Y-53340000D01*
X168402000Y-83566000D02*
X160528000Y-91440000D01*
X142748000Y-57150000D02*
X151892000Y-57150000D01*
X142748000Y-44450000D02*
X142748000Y-57150000D01*
X153162000Y-53340000D02*
X153162000Y-49784000D01*
X105156000Y-53340000D02*
X105156000Y-44450000D01*
X124714000Y-83404000D02*
X130810000Y-83404000D01*
X188976000Y-59690000D02*
X188976000Y-61214000D01*
X151892000Y-57150000D02*
X151892000Y-53340000D01*
X171958000Y-80010000D02*
X168402000Y-83566000D01*
X130810000Y-91440000D02*
X160528000Y-91440000D01*
X160528000Y-91440000D02*
X160782000Y-91440000D01*
X179070000Y-49784000D02*
X188976000Y-59690000D01*
X105156000Y-44450000D02*
X142748000Y-44450000D01*
X171958000Y-77470000D02*
X171958000Y-80010000D01*
X170815000Y-76327000D02*
X171958000Y-77470000D01*
X169672000Y-74168000D02*
X169164000Y-74676000D01*
X122936000Y-53340000D02*
X122936000Y-49784000D01*
X122936000Y-49784000D02*
X137414000Y-49784000D01*
X137414000Y-49784000D02*
X137414000Y-62484000D01*
X124206000Y-54610000D02*
X124206000Y-66538000D01*
X124206000Y-66538000D02*
X120650000Y-70094000D01*
X122936000Y-53340000D02*
X124206000Y-54610000D01*
X169672000Y-62484000D02*
X169672000Y-54610000D01*
X169672000Y-54610000D02*
X170942000Y-53340000D01*
X137414000Y-62484000D02*
X169672000Y-62484000D01*
X156972000Y-58674000D02*
X156972000Y-54610000D01*
X110236000Y-45974000D02*
X141224000Y-45974000D01*
X110236000Y-53340000D02*
X110236000Y-45974000D01*
X156972000Y-54610000D02*
X158242000Y-53340000D01*
X141224000Y-58674000D02*
X156972000Y-58674000D01*
X141224000Y-45974000D02*
X141224000Y-58674000D01*
X123190000Y-69342000D02*
X123190000Y-70094000D01*
X125476000Y-55880000D02*
X125476000Y-67056000D01*
X125476000Y-67056000D02*
X123190000Y-69342000D01*
X177254000Y-54648000D02*
X178562000Y-53340000D01*
X130556000Y-52070000D02*
X135128000Y-52070000D01*
X135128000Y-64770000D02*
X177254000Y-64770000D01*
X130556000Y-53340000D02*
X130556000Y-52070000D01*
X177254000Y-64770000D02*
X177254000Y-54648000D01*
X135128000Y-52070000D02*
X135128000Y-64770000D01*
X128016000Y-53340000D02*
X128016000Y-51308000D01*
X110490000Y-81788000D02*
X110490000Y-85334000D01*
X174752000Y-64008000D02*
X174752000Y-54610000D01*
X135890000Y-64008000D02*
X174752000Y-64008000D01*
X124460000Y-81788000D02*
X110490000Y-81788000D01*
X128016000Y-51308000D02*
X135890000Y-51308000D01*
X124460000Y-69342000D02*
X124460000Y-81788000D01*
X126766000Y-67036000D02*
X124460000Y-69342000D01*
X174752000Y-54610000D02*
X176022000Y-53340000D01*
X128016000Y-53340000D02*
X126766000Y-54590000D01*
X135890000Y-51308000D02*
X135890000Y-64008000D01*
X126766000Y-54590000D02*
X126766000Y-67036000D01*
X95250000Y-87884000D02*
X120650000Y-87884000D01*
X141986000Y-57912000D02*
X154432000Y-57912000D01*
X155448000Y-53086000D02*
X155702000Y-53340000D01*
X108966000Y-56642000D02*
X97790000Y-67818000D01*
X107696000Y-53340000D02*
X107696000Y-45212000D01*
X120650000Y-87884000D02*
X120650000Y-85334000D01*
X97790000Y-67818000D02*
X95250000Y-67818000D01*
X107696000Y-53340000D02*
X108966000Y-54610000D01*
X107696000Y-45212000D02*
X141986000Y-45212000D01*
X154432000Y-53086000D02*
X155448000Y-53086000D01*
X141986000Y-45212000D02*
X141986000Y-57912000D01*
X95250000Y-67818000D02*
X95250000Y-87884000D01*
X108966000Y-54610000D02*
X108966000Y-56642000D01*
X154432000Y-57912000D02*
X154432000Y-53086000D01*
X112522000Y-56134000D02*
X111750000Y-56134000D01*
X112776000Y-55880000D02*
X112522000Y-56134000D01*
X111750000Y-56134000D02*
X97790000Y-70094000D01*
X136652000Y-50546000D02*
X136652000Y-63246000D01*
X125476000Y-50546000D02*
X136652000Y-50546000D01*
X172332000Y-53340000D02*
X173482000Y-53340000D01*
X136652000Y-63246000D02*
X172332000Y-63246000D01*
X125476000Y-53340000D02*
X125476000Y-50546000D01*
X172332000Y-63246000D02*
X172332000Y-53340000D01*
X165090000Y-85334000D02*
X165100000Y-85344000D01*
X133350000Y-85334000D02*
X165090000Y-85334000D01*
X165100000Y-77216000D02*
X169164000Y-77216000D01*
X133350000Y-85334000D02*
X133350000Y-90678000D01*
X165100000Y-85344000D02*
X165100000Y-77216000D01*
X120396000Y-53340000D02*
X121666000Y-54610000D01*
X167132000Y-54610000D02*
X168402000Y-53340000D01*
X121666000Y-63998000D02*
X115570000Y-70094000D01*
X167132000Y-61722000D02*
X167132000Y-54610000D01*
X138176000Y-49022000D02*
X138176000Y-61722000D01*
X120396000Y-53340000D02*
X120396000Y-49022000D01*
X120396000Y-49022000D02*
X138176000Y-49022000D01*
X121666000Y-54610000D02*
X121666000Y-63998000D01*
X138176000Y-61722000D02*
X167132000Y-61722000D01*
X130556000Y-55880000D02*
X134366000Y-55880000D01*
X134366000Y-65532000D02*
X178562000Y-65532000D01*
X178562000Y-65532000D02*
X178562000Y-55880000D01*
X134366000Y-55880000D02*
X134366000Y-65532000D01*
X115316000Y-57648000D02*
X102870000Y-70094000D01*
X115316000Y-55880000D02*
X115316000Y-57648000D01*
X128016000Y-67056000D02*
X127000000Y-68072000D01*
X127000000Y-68072000D02*
X127000000Y-82804000D01*
X113030000Y-82804000D02*
X113030000Y-85334000D01*
X127000000Y-82804000D02*
X113030000Y-82804000D01*
X128016000Y-55880000D02*
X128016000Y-67056000D01*
X162052000Y-59436000D02*
X162052000Y-54610000D01*
X162052000Y-54610000D02*
X163322000Y-53340000D01*
X161290000Y-60198000D02*
X162052000Y-59436000D01*
X116586000Y-58918000D02*
X105410000Y-70094000D01*
X139700000Y-60198000D02*
X161290000Y-60198000D01*
X139700000Y-47498000D02*
X139700000Y-60198000D01*
X115316000Y-53340000D02*
X115316000Y-47498000D01*
X115316000Y-47498000D02*
X139700000Y-47498000D01*
X115316000Y-53340000D02*
X116586000Y-54610000D01*
X116586000Y-54610000D02*
X116586000Y-58918000D01*
X138938000Y-48260000D02*
X138938000Y-60960000D01*
X119126000Y-54610000D02*
X119126000Y-61458000D01*
X117856000Y-48260000D02*
X138938000Y-48260000D01*
X138938000Y-60960000D02*
X164554000Y-60960000D01*
X164554000Y-54648000D02*
X165862000Y-53340000D01*
X119126000Y-61458000D02*
X110490000Y-70094000D01*
X117856000Y-53340000D02*
X117856000Y-48260000D01*
X164554000Y-60960000D02*
X164554000Y-54648000D01*
X117856000Y-53340000D02*
X119126000Y-54610000D01*
X141224000Y-113030000D02*
X141224000Y-124968000D01*
X141224000Y-124968000D02*
X141190000Y-125002000D01*
X141190000Y-125002000D02*
X99344000Y-125002000D01*
X137414000Y-102362000D02*
X137414000Y-97433654D01*
X137414000Y-97433654D02*
X141986000Y-92861654D01*
X141986000Y-92861654D02*
X141986000Y-92202000D01*
X133096000Y-109220000D02*
X137414000Y-109220000D01*
X100584000Y-113030000D02*
X107543600Y-106070400D01*
X161544000Y-101346000D02*
X163322000Y-101346000D01*
X163322000Y-101346000D02*
X163322000Y-107696000D01*
X163322000Y-107696000D02*
X153263600Y-107696000D01*
X153263600Y-107696000D02*
X151638000Y-106070400D01*
X107543600Y-106070400D02*
X151638000Y-106070400D01*
X151638000Y-101346000D02*
X151638000Y-100838000D01*
X161544000Y-106426000D02*
X156718000Y-106426000D01*
X156718000Y-106426000D02*
X151638000Y-101346000D01*
X151638000Y-108686600D02*
X161544000Y-118592600D01*
X161544000Y-118592600D02*
X161544000Y-119126000D01*
X150647400Y-107696000D02*
X151638000Y-108686600D01*
X103124000Y-113030000D02*
X108458000Y-107696000D01*
X108458000Y-107696000D02*
X150647400Y-107696000D01*
X151333200Y-110998000D02*
X151638000Y-111302800D01*
X105664000Y-113030000D02*
X107696000Y-110998000D01*
X107696000Y-110998000D02*
X151333200Y-110998000D01*
X107619800Y-103454200D02*
X151638000Y-103454200D01*
X161544000Y-103886000D02*
X155448000Y-103886000D01*
X98044000Y-113030000D02*
X107619800Y-103454200D01*
X155448000Y-103886000D02*
X154940000Y-103378000D01*
X123444000Y-110236000D02*
X123444000Y-108458000D01*
X148082000Y-100838000D02*
X148082000Y-97282000D01*
X148082000Y-97282000D02*
X151638000Y-93726000D01*
M02*
